<svg xmlns="http://www.w3.org/2000/svg" width="3000" height="3000" viewBox="0 0 3000 3000"><defs><style>.cls-1{fill:#8fafff;}.cls-2{fill:#b6ffd3;}.cls-3{fill:#fff57d;}.cls-4{fill:#ff83a6;}.cls-5{fill:#99ffe4;}.cls-6{fill:#b994ff;}.cls-7{fill:#ffd894;}.cls-8{fill:#cadeff;}.cls-9{fill:#003472;}</style></defs><title>idea</title><g id="fill"><path class="cls-1" d="M1940.62,2429.69c-.76-5.62-2.71-11.5-4.84-17.92-2.3-6.91-4.67-14.06-5.83-21.9-1-6.54-2.3-12.84-3.91-20.4-1.29-6-2.75-12.9-3.87-19.74-1.27-8-.93-16-.62-23.38.34-6.76.55-12.78-.32-18-1.21-6.91-2.67-13.69-4.3-21.18l-.49-2.32c-1.16-5.42-2.34-11-3.39-16.61s-3.15-11.54-5.47-18c-2.69-7.34-5-14-6.48-21.33-1.41-7.12-2.25-14.34-3-20.71-.71-6.17-1.45-12.56-2.67-18.62v-.6l-.45-.8-.11-.19c-.21-1.43-.4-2.88-.6-4.41l0-.16-.17-.79c-.76-4.43-1.3-8.86-1.83-13.14l-.34-2.81c-.81-6.58-1.57-12.8-2.9-18.77-1.41-6.38-2.61-12.76-3.78-18.93l-.59-3.06c-1.2-6.27-2.34-12.19-3.75-18.13a168.86,168.86,0,0,0-6-18.68,200.41,200.41,0,0,1-6.53-20.41c-1.57-6.27-2.9-12.57-4.17-18.66l-.16-.77c-1.49-7.09-2.9-13.79-4.65-20.43-1.58-6.14-3.66-12.2-5.86-18.62l-.69-2c-2-5.93-4.13-12.06-5.86-18.37l-.8-3c-.94-3.45-1.87-6.88-2.78-10.36-2.35-8.72-4.7-17.43-7.19-26.1-2.1-7.38-4.4-14.87-6.63-22.12l-.61-2c-1.55-5-3.06-10-4.58-15-1.88-6.32-4.32-12.51-6.9-19.07-2.32-5.86-4.95-12.51-7.1-19.37-2-6.51-3.61-13-5.13-19.3l-.5-2.06c-1.54-6.34-3-12.33-4.91-18.14a167.25,167.25,0,0,1-5.06-21.4,138.68,138.68,0,0,0-4.34-18.59c-1.81-5.23-5.16-10.71-8.39-16l-.2-.34c-3.61-6-7.71-12.8-10.4-20.32a189.18,189.18,0,0,1-5.69-20.95l-.08-.37a148.61,148.61,0,0,0-4.95-18.26,170.62,170.62,0,0,0-7.76-16.87l-.44-.89a205.05,205.05,0,0,1-9-19.38c-2.52-6.56-4.35-13.16-6.11-19.55l-.33-1.18a175.1,175.1,0,0,0-5.76-18.35c-3.84-9.68-7.74-19.26-11.68-28.83l-.52-.87a57.89,57.89,0,0,0-38.64-21.34c-11.41-1.27-22.45,1.56-33.13,4.31-5,1.29-10.25,2.64-15.35,3.49l-.43.1c-4.58,1.39-8.81,2.33-12.33,3.06l-1.58.32c-8.36,1.71-15.57,3.19-21.31,5.51-5.17,2.08-10.76,5.55-17.23,9.56l-3.49,2.16a111.46,111.46,0,0,1-12.89,7,77.9,77.9,0,0,1-14.8,5c-4.68,1.1-9.05,1.82-12.34,2.33l-.53.12c-9.76,3.14-18.37,6.28-25.06,12.93-13.35,13.35-13.56,33.48-12,51.41l.11.62c.39,1.42.84,3,1.33,4.75l1.26,4.46c2.3,8.18,1.56,16.2-2.09,22.59a24.06,24.06,0,0,1-15,11.31l-23.51,6.11c-3.88,1-8.46,2.18-15.7,4.11l-4.76,1.24-.62.23a57.17,57.17,0,0,0-15.48,10.27c-5.93,5.76-9.46,12.91-11.88,18.5l-.19.56a67.13,67.13,0,0,1-10.09,23,70.39,70.39,0,0,1-11.08,12.42c-1.81,1.6-3.83,3.27-6,5-1.87,1.45-3.93,2.94-6.11,4.43a106.56,106.56,0,0,1-10,5.92l-.55.29-.41.47c-9.58,10.89-13.86,24.49-12.37,39.3a6.49,6.49,0,0,1-.2,2.46l-.23.83.29,1.39c.06.31.11.62.16.83a61.42,61.42,0,0,0,2.52,8.24l1,2.78a78.22,78.22,0,0,1,3.39,15.11,103.73,103.73,0,0,1,.87,15.05,82.29,82.29,0,0,1-1.93,15,48.42,48.42,0,0,0-1.18,10.16,84.8,84.8,0,0,0,.79,11,64.53,64.53,0,0,0,2.22,10.64,116.83,116.83,0,0,1,3.42,14c.68,4.14,1.17,8.76,1.52,14.17.34,4.37.54,9,.61,13.63l0,3.48c0,3.23.07,6.16.2,9,.15,4.32.51,8.82.81,12.26.41,4.74.85,8.36,1.41,11.72.27,1.67.62,3.49,1,5.44.44,2.27.92,4.73,1.34,7.34.64,4.08,1.13,8.35,1.59,13.85.34,4.39.68,8.8.89,13.32.09,2.51.16,4.87.23,7.14.2,6.47.37,12.05.88,18.28.35,4.18.7,8.25,1.15,12.23.39,3.38.91,6.63,1.51,10.41l.31,2c1.12,7.1,1.7,14.17,2.27,21,.16,1.86.31,3.68.47,5.46l2.45,25.71.55,6.47c.17,2.46.3,4.95.34,7.54a78.75,78.75,0,0,1-1.49,15.35,56,56,0,0,0-1.41,10.62,93.8,93.8,0,0,0,.56,11.41l3.21,38.27a63.83,63.83,0,0,0,1.75,10.64c.3,1.13.66,2.34,1.08,3.72l.58,1.92c.68,2.26,1.39,4.69,1.94,7.16a104.53,104.53,0,0,1,2.17,14.67,116.63,116.63,0,0,1,.34,14.67c-.12,3.2-.46,6.18-.76,8.81-.19,1.69-.36,3.2-.44,4.43a79.37,79.37,0,0,0,0,11l.93,12.87c.23,3.75.39,7.55.54,11.09l.08,2c.17,4.18.45,8.29.76,12.5.32,4.47.64,8.17,1.17,11.75a87.77,87.77,0,0,0,2.57,11.07,101.58,101.58,0,0,1,2.94,14.45c.33,2.38.53,4.69.74,7.05l.48,6.79c.07,1,.1,2,.14,3l.06,1.55.11.73c1.52,5.71,3.74,10.06,6.81,13.3,6,6.3,14.49,7.62,20.62,8.08h59.44l.47,0c5.68-.79,12.82-2.34,17.56-7.42a24.42,24.42,0,0,0,5.3-9.45l.62-8.36c.21-4.14.38-8.42.49-12.54a64.88,64.88,0,0,0-.44-10.61c-.22-1.61-.55-3.22-1-5.16l-.28-1.22c-.37-1.59-.8-3.48-1.19-5.53a80.26,80.26,0,0,1-1.45-15.34c0-5,.19-9.27.64-14.34a131.33,131.33,0,0,1,2.12-14,98.5,98.5,0,0,0,1.61-11.31c.14-1.87.25-3.82.32-5.79l.24-6.49c.23-4.95.52-9.49.85-13.49l.21-2.29c.33-3.64.63-6.89.83-10.24.24-4.07.38-8.1.52-12.47.23-8.16.71-17,1.14-24.8l.07-1.21c.26-4.86.42-9.77.58-14.79.11-3.56.23-7.18.38-10.85l.69-13.1c.24-4.24.45-8.38.59-12.59a218.11,218.11,0,0,0,0-24.39c-.28-4.2-.58-9.09-.61-13.57,0-2.32,0-4.59.07-6.9l.14-6.4c.08-4.65,0-8.26-.25-11.65-.09-1.34-.22-2.83-.37-4.42-.24-2.64-.5-5.59-.63-8.72-.23-4.14-.26-8.59-.1-14,.14-4.71.36-9.14.65-13.52.25-3.33.58-6.63.89-9.68l.35-3.47c.34-3.52.59-7.15.84-12.18l0-.95c.3-7.83.64-16.71,1.14-24.94l.62-12.66c.17-4.24.35-8.62.42-12.43a114.5,114.5,0,0,0-.36-11.61l-.26-2.91c-.3-3.24-.64-6.91-.77-10.53-.12-4.35-.09-8.82.1-14a106.71,106.71,0,0,1,1.57-14.76c.57-3.16,1.31-6,2-8.54.43-1.68.81-3.16,1.06-4.37a69.47,69.47,0,0,0,1.35-10.73l.59-25c.07-9,.42-17.91.79-26.23l1.9-38.67c.28-5.29.61-9.59,1-13.51l1.41-12.73c.37-3.52.6-7.07.85-10.72l.1-1.55a104.21,104.21,0,0,0,.18-11.5,91.91,91.91,0,0,0-1-9.65l-.32-2.38a100.69,100.69,0,0,1-.77-14.47c.09-4.32.31-8.42.74-13.7.35-4.21.94-9,1.66-13.51l.24-1.51c.61-3.76,1.13-7,1.47-10.61.44-4.18.78-8.49.95-12.16a82.66,82.66,0,0,0-.22-11.62l-.69-6.17c-.32-2.67-.52-5-.6-7a119.3,119.3,0,0,1,.24-13.91,8.64,8.64,0,0,1,17.27.57,100.27,100.27,0,0,0,.76,11.15l.09.71.37.62a6.19,6.19,0,0,1,.8,2c3.33,14.55,7.4,29.22,12.44,44.85l.19.46c1.37,2.81,2.66,5.75,4.17,9.29.87,2.06,1.78,4.12,2.72,6.22l.34.76.65.52c.32.26.65.49,1,.7,1.2,2.93,2.59,6.26,4.11,9.64v.69l.82.78,3.86,6c5.42,8.49,11.56,18.11,17.78,28.77,4,6.81,7.58,13.69,11.9,22,2.43,4.64,4.92,9.39,7.55,14.23,2.33,4.32,5.31,8.73,8.47,13.4l.63.93a191.2,191.2,0,0,1,12.67,20.67l4.13,8.11c4.66,9.15,9.48,18.62,14.26,28.67,3,6.28,5.67,12.92,8.28,19.33l1.66,4.1c1.92,4.75,3.91,9.65,6,14.4,3.07,6.87,5.7,14,8.23,20.86,2,5.63,4.26,11.63,6.66,17.37,2.19,5.13,4.89,10.39,7.7,15.76l.31.61c3.35,6.53,6.82,13.28,9.77,20.62a160.68,160.68,0,0,1,6.38,21.6l.1.41a145.27,145.27,0,0,0,5,17.49c1.7,4.51,3.56,9,5.52,13.68l1.6,3.82c2.77,6.56,5.63,13.35,8.14,20.45,1.86,5.2,4,10.33,6.51,16.47l.27.66c2.75,6.74,5.6,13.71,8.1,21,1.52,4.58,3.12,9.16,4.74,13.76,2.59,7.41,5.62,16.18,8.47,25.06,1.76,5.42,3.84,10.85,6.17,16.87,2.51,6.55,5.37,14,7.72,21.69,2.29,7.52,4.43,15.5,6.32,22.54l.48,1.75c1.37,5,2.74,10.09,4.2,15.14,2.23,7.8,4.31,15.86,6,22.71,1.42,5.62,2.88,11.24,4.44,16.87s3.22,11.08,5.11,17.18c2.43,7.73,4.59,14.73,6.51,22.1,1.78,6.87,3.41,13.91,5,20.73l.54,2.34c1.28,5.58,2.57,11.15,3.95,16.75,1.81,7.42,3.11,15.05,4.2,21.66l.34,2c1,5.75,1.93,11.18,3.19,16.6,1.66,7.12,2.86,14.32,4,21.67.45,2.85.9,5.67,1.39,8.41l.6,3.39,102.55-18-.07-3c-.1-4.39,0-8.73.11-12.76C1941.25,2441.57,1941.41,2435.36,1940.62,2429.69Z"/><path class="cls-1" d="M1490.51,2490.46h-64.89a3.44,3.44,0,0,0-1.09.18c-2.38.8-5.35,1.79-8.17,2.94-3.81,1.54-6,4.09-6.6,7.8a3.44,3.44,0,0,0,0,1.38c.19.78.34,1.56.51,2.37.42,2.42.76,4.82,1,7.36l.24,2.11a3.49,3.49,0,0,0,.23.92c3.85,9.4,11.62,9.8,19.21,10.18,1.1,0,2.14.12,3.18.25l.41,0,.34,0c.67-.06,1.36-.13,2.24-.17,8.71-.84,18.38-.91,26.76-.91,5.11,0,10.11-.13,15.27-.26,3.37-.08,6.8-.17,10.39-.23l4.87-.07a3.56,3.56,0,0,0,.76-.09,17.06,17.06,0,0,0,7.31-3.5,16.09,16.09,0,0,0,4.19-5.89,3.46,3.46,0,0,0,.29-1.24c.06-1.47.19-3,.32-4.51,0-.11,0-.43,0-.54,0-3.89-.46-8.85-3.45-12.68C1500.36,2491.23,1494.13,2490.73,1490.51,2490.46Z"/><path class="cls-1" d="M1946.73,2492.63c-.51-1.74-1-3.5-1.5-5.27a3.47,3.47,0,0,0-3.93-2.51l-92.44,16.22a3.45,3.45,0,0,0-2.56,4.8c3.09,7,6,13.87,7.6,21.54a12.48,12.48,0,0,0,1.45,4.08,3.45,3.45,0,0,0,3,1.71,7.73,7.73,0,0,0,1.18-.12,145.32,145.32,0,0,1,22.61-2.4,115.79,115.79,0,0,0,18.88-2,130.37,130.37,0,0,0,18.6-4.48,157,157,0,0,1,22-5.25c4.33-.78,8.28-4.06,9.25-6.63a3.46,3.46,0,0,0,.2-1.62C1950.3,2504.71,1948.4,2498.28,1946.73,2492.63Z"/><path class="cls-2" d="M1834.58,1005.3a3.37,3.37,0,0,0-.82-.55l-1-.47c-.66-.32-1.32-.65-2-.95a7,7,0,0,0-.75-.37l-43.23-18.84c-5.19-2-10.51-3.75-16.12-5.63l-3.42-1.16c-4.1-1.39-8.21-2.79-12.31-4.3-7.2-2.65-14.54-4.84-23.36-7.42l-3.21-1c-4-1.19-8-2.38-12-3.69a144.87,144.87,0,0,1-19.21-8.17c-6.32-3.07-12.29-6-18.31-7.61-5.54-1.49-12-2-18.87-2.53-2.07-.13-4.21-.31-6.35-.51a3.49,3.49,0,0,0-.88,0,21.77,21.77,0,0,0-8.49,3.06c-4.62,3-7.39,7.91-9.41,12.18a80,80,0,0,1-4.69,10.55c-6.3,11.62-15.78,20.57-24.16,28.48l-3.22,3a62.82,62.82,0,0,1-4.78,4.12,3.48,3.48,0,0,0-1.12,1.55,19.37,19.37,0,0,0-1,3.84,192.63,192.63,0,0,1-34.28,15.32,3.54,3.54,0,0,0-.66.3c-.8.47-1.59.94-2.33,1.41-7.82,4.81-16.68,10.26-27.37,12.43a56.25,56.25,0,0,1-11.07,1,124.76,124.76,0,0,1-18.66-1.83l-1.08-.16c-3.51-.51-6.82-1-10-1.22-12.34-.88-24.69-3.66-38.86-8.74l-4.61-1.64c-10-3.45-21.25-7.37-31.95-14.86a164.34,164.34,0,0,1-29.64-26.87c-2.53-2.93-4.77-5.74-6.88-8.59a3.43,3.43,0,0,0-.71-.71c-1.56-1.17-3.17-2.31-4.83-3.43-7.66-5.08-14.27-3.78-19.16-2.07a3.43,3.43,0,0,0-.87.45l-22.67,16.27c-4.61,3.43-8,6.11-11.13,8.69-1.75,1.47-3.44,2.94-5.12,4.45s-3.44,3.19-5.09,4.8a169.69,169.69,0,0,0-18.14,20.57c-1.56,2.11-2.75,3.84-3.73,5.42l-.27.43a20.63,20.63,0,0,0-1.15,2c-.39.76-.83,1.62-1.28,2.56-1.49,3.19-3,7.11-5.06,12.73-1.45,4.09-3.06,8.42-4.68,12.74-2,5.28-3.94,10.56-5.6,15.38l-9.78,27.58c-2.05,6-4.3,11.47-6.47,16.76-1.62,3.94-3.14,7.66-4.46,11.28-.85,2.21-1.57,4.35-2.24,6.48l-.86,2.88c-.26.9-.49,1.87-.72,2.91-.8,3.77-1.29,8.17-1.81,12.81l-.07.62c-.47,4.48-1.05,10.06-2.25,15.95-.47,2.14-.9,4-1.37,5.64a3.46,3.46,0,0,0-.1,1.38,11.55,11.55,0,0,0,2.17,5.81c2.35,2.94,5.74,3.35,8.47,3.68l1.29.17c.81.12,1.59.28,2.47.46a3.46,3.46,0,0,0,1.15,0,87.75,87.75,0,0,1,19.21-.57c1.11.1,2.26.23,3.4.39a3.41,3.41,0,0,0,1.73-.19c.79-.31,1.63-.58,2.54-.84,2.19,1,4.15,2.07,6,3.12a3.46,3.46,0,0,0,.75.32,101,101,0,0,1,26,12.42c8.93,5.82,15.14,13.56,20,20.36a3.42,3.42,0,0,0,1.14,1,35.76,35.76,0,0,0,6.41,2.7l.74.22c3,.9,5.6,1.67,8.64-.1a3.45,3.45,0,0,0,1.31-1.36c1-1.8,2.12-3.92,3.39-5.95,1.44-2.26,3.19-4.77,5.18-7.43a77.05,77.05,0,0,0,7.84-12c.41-.74.82-1.53,1.23-2.38a3.34,3.34,0,0,0,.27-2.06,18.42,18.42,0,0,0-.15-2.13,3.45,3.45,0,0,0,2.86-1.92l1.13-2.33c.56-1.15,1.12-2.31,1.69-3.46,2-4,4.1-8,6.1-11.84l1.44-2.75c2.39-4.65,4.78-9.36,7.14-14.18,0-.09.08-.18.12-.27a10.34,10.34,0,0,1,13.74-4.56,10.4,10.4,0,0,1,5.06,13.19c-1.93,4.85-4,10.06-6.36,15.26l-1.53,3.39c-1.76,3.89-3.43,7.6-5,11.31-.83,1.9-1.6,3.77-2.39,5.69-1.23,3-2.5,6.11-4.17,9.63a88.29,88.29,0,0,1-4.37,8.16c-1.59,2.68-3.35,5.23-4.89,7.44-1.63,2.39-2.79,4.14-3.91,6.09-1.28,2.34-2.24,4.26-3.1,6.16-1,2.12-1.94,4.37-3,7l-3,7.39c-2.58,6.51-5.41,13.57-8.3,20.56a3.39,3.39,0,0,0-.25,1,13.58,13.58,0,0,1-3,7.42,3.78,3.78,0,0,0-.69,1l-.1.22c-2.17,5-4.4,10.11-6.64,15.07-.33.69-.63,1.35-.93,2,0,.09-.15.34-.18.43-4.43,12.56-8.34,25.63-11.62,38.84a3.42,3.42,0,0,0-.09.57c-.22,2.82-.44,5.61-.89,8.6-.1.57-.17,1.09-.26,1.76a3.44,3.44,0,0,0,0,.73c1,13.61,2.74,31.44,6.6,48.74,3.54,15.84,14.55,26.6,32.73,32l.36.09a60,60,0,0,0,10.92,1.06,93.42,93.42,0,0,0,9.92-.71c1.28-.14,2.56-.29,3.85-.41a3.52,3.52,0,0,0,.53-.09c7.37-1.87,12.86-.29,16.17,1.36,6,3,10.14,8.59,12.41,16.63a194.76,194.76,0,0,0,7,21,222.81,222.81,0,0,1,7.87,23.5c1.59,5.68,2.81,9.91,3.85,13.41a3.44,3.44,0,0,0,.74,1.32,7.35,7.35,0,0,1,1.49,2.55c15.95,44.53,38.6,88.94,85.71,88.94a83.09,83.09,0,0,0,13.19-1.09,3.56,3.56,0,0,0,.62-.16c.94-.34,1.84-.71,2.83-1.15a96.37,96.37,0,0,0,9.93-5.46c1.49-.89,3-1.85,4.61-2.85a132.59,132.59,0,0,1,20.15-10.91c8.4-3.33,16.4-5,23.46-6.41,1.39-.28,2.74-.56,4.05-.84,3.81-.81,7.81-1.72,11.31-2.85,3.25-1,7.41-2.81,10.71-4.24,2.64-1.18,5.33-2.44,8.11-3.74,3.64-1.71,7.43-3.48,11.44-5.22a4.4,4.4,0,0,0,1.28-1l.47-.51a3.43,3.43,0,0,0,2.17-.19l.72-.3c4.47-1.86,9.75-3.6,13.38-4.72,4.61-1.41,8.9-2.61,13.14-3.69,8.45-2.23,17.12-4.16,26.5-5.87,11.21-2,22.12-1.51,29.32-1l19.84,1.66c2.39.21,4.75.47,7.17.81a118.8,118.8,0,0,1,19.55,4.46,3.45,3.45,0,0,0,4.13-4.83l-.25-.51c-.67-1.33-1.34-2.68-2-4.16a135.71,135.71,0,0,1-5.8-13.31,78.26,78.26,0,0,1-3.79-15.31c-.79-5.59-1.16-10.85-1.48-15.5-.27-3.82-.52-7.43-1-10.68a49,49,0,0,0-2.19-10,79.22,79.22,0,0,0-4.44-10.17c-.7-1.45-1.46-2.95-2.26-4.51-3.2-6.3-6.83-13.44-9-22.34l-.38-1.93a3.62,3.62,0,0,0-.3-.85l-.58-1.15a30.34,30.34,0,0,0-2.42-4.32l-1.37-2.17a63.82,63.82,0,0,0-5.71-8.17,92.18,92.18,0,0,0-18.17-18,100.69,100.69,0,0,0-22.55-13c-1.21-.51-2.43-1-3.65-1.43l-2.59-1c-2-.67-4.12-1.34-6.25-2s-4.25-1.14-6.27-1.55c-1.07-.25-2.11-.43-3.15-.61-.49-.1-.95-.17-1.6-.27l-2.55-.41a8.58,8.58,0,0,1,1.64-17.06l2.4.1c.66,0,1.31.06,1.92.12l1.34.13c.89.08,1.77.16,2.72.28,2.2.23,4.33.59,6.6,1l1.07.18c2.56.47,5.09,1,7.49,1.62l2.57.71c1.67.46,3.34.92,4.86,1.39l1.43.52a3.46,3.46,0,0,0,1,.2,7.78,7.78,0,0,1,1.61.29c7,2.17,14.83,4.17,20.22.38,3.28-2.31,5.07-6.36,5.31-12a99,99,0,0,0-.5-13.67,3.32,3.32,0,0,0-.09-.51c-.73-2.92-1.46-5.83-2.25-8.85-1.1-4.15-2.23-8.44-3.3-12.93-.54-2.17-1-4.4-1.51-6.62l-6.46-32.1c-1.78-8.75-3.31-17.94-4.41-26.55l-3.15-25.87-6.14-45.4c-.27-2.3-.47-4.6-.64-6.84-.61-7.78-.88-15.29-1.13-22.55l-.14-3.84c-.27-7.51-.88-15.06-1.54-23.07-.77-9.42-1.57-19.17-1.77-29.08a10.34,10.34,0,0,1,20.4-2.65,3.37,3.37,0,0,0,.32.81,61.66,61.66,0,0,1,3.6,8.64c2.62,7.34,5.33,14.93,14.86,19.32,2.5,1.16,5,2.19,7.5,3.2,3,1.21,5.77,2.35,8.47,3.7a3.47,3.47,0,0,0,.66.25l3,.77a175.86,175.86,0,0,0,17.8,3.57l.51.08c3.73.55,7.2,1.13,12,2.14a3.44,3.44,0,0,0,1.53,0c5.45-1.34,8.9-4.1,10.25-8.2a20.27,20.27,0,0,0,.84-3.9,3.4,3.4,0,0,0-.06-1.21,133.59,133.59,0,0,1-3.6-27.44c-.2-12.33,2.48-25.73,8-39.85a99.94,99.94,0,0,1,21.53-32.81,3.42,3.42,0,0,0,.87-1.56,28.8,28.8,0,0,0,.89-5.08C1842.08,1013,1838.32,1008.68,1834.58,1005.3Z"/><path class="cls-3" d="M2002.95,447.4v0a57,57,0,0,0-3.43-15c-.86-2.46-1.93-5.17-3.24-8.26l-3.78-9.1c-.82-2.05-1.58-4-2.32-5.93-1.58-4.1-3.07-8-4.62-11.19a45.66,45.66,0,0,0-3.63-6.54c-.63-.86-1.23-1.64-1.94-2.47l-2.27-2.27c-6.73-6.37-16.55-12.24-28.39-17-8.65-3.47-19.52-5.2-32.51-5.12-14.73-.08-25.16,1.28-32.79,4.29a89.62,89.62,0,0,0-27.74,17.75l-2.5,2.52c-.62.73-1.27,1.54-1.88,2.42a41.47,41.47,0,0,0-3.6,6.39c-1.64,3.41-3.21,7.45-4.88,11.74-.66,1.71-1.36,3.49-2.07,5.28l-3.75,9c-1.21,3-2.2,5.69-3,8.18a61,61,0,0,0-3.17,15.37,74.05,74.05,0,0,0,.07,7.94,78.42,78.42,0,0,0,.84,8.36,81.36,81.36,0,0,0,4.16,16,82.73,82.73,0,0,0,7.23,15c.46.76,1,1.53,1.47,2.3l8.56,15.18c3,5.6,5.76,11.36,8.8,17.77,2.3,4.84,4.39,9.93,6.41,14.84l1.82,4.44c4.57,11.39,9.29,23.16,13.3,35l.1.28a9.54,9.54,0,0,1-4.43,11.17l-3.23,1.81,2,3.09c2.94,4.47,6,8.92,9.22,13.19,4.07,5.54,8,10.6,12.1,15.49,3.84,4.63,8.78,7,13.93,7a18,18,0,0,0,7.83-1.86.33.33,0,0,0,.11,0c14.1.43,22.2-9.74,28.3-19.73l.25-.4q3.89-6.43,7.74-12.86l1.66-2.78-2.67-1.83a9.47,9.47,0,0,1-3.64-10.51l6-18.25c1.74-5.66,4-12.1,6.51-18.62,1.16-3,2.42-6.14,3.79-9.36,1.23-2.9,2.61-5.9,4.23-9.17,2.46-5,5.76-11.48,9.51-17.79l3.16-5.27,2.43-9c1.92-7.47,3.78-13.69,5.81-19.56l3.28-9.24c1-2.71,1.88-5.49,2.79-8.56a60.07,60.07,0,0,0,1.8-7.65,23.17,23.17,0,0,0,.31-2.61l.05-.81C2003,449.94,2003,448.56,2002.95,447.4Z"/><path class="cls-4" d="M849.64,1351.37l-.2-1a10.5,10.5,0,0,0-.52-1.23,40.33,40.33,0,0,0-5.78-10.75l-.38-.52-.54-.34a30,30,0,0,1-7.7-6.89c-2.93-3.73-5.23-6.48-7.18-8.81l-.27-.28a103.18,103.18,0,0,1-10.59-11.77c-.93-1.16-1.73-2.24-2.49-3.27l-.49-.65c-1.36-1.63-2.83-3.47-4.57-5.7a92.8,92.8,0,0,1-10.62-16.23c-1.08-2-2.16-4-3.57-6.34l-.25-.36c-4.2-5.23-6.75-8.18-9.21-11l-.61-.7c-3-3.48-6.19-7.08-11.93-14.36s-8.56-11-11.35-14.75-5.41-7.17-11-14.33c-.31-.37-.58-.7-.85-1.07l-.42-.56-.61-.35c-1.69-1-3.35-2.13-5.11-3.36-4.3-3-8.75-6.11-14.09-6.74l-.33,0h-.26a35.16,35.16,0,0,0-6.12.76h-1.09l-.53.53a31.16,31.16,0,0,0-5.67,3.63c-.84.63-1.69,1.27-2.57,1.85a18.51,18.51,0,0,1-3.77,1.87l-.62.23-.49.44c-.15.13-.3.25-.46.37l-.44.35a57.53,57.53,0,0,1-20.7,10.81,30.39,30.39,0,0,0-11.87,6.17,105.18,105.18,0,0,0-12.18,10.9,137.12,137.12,0,0,1-14.76,13.27,55.82,55.82,0,0,0-10.77,10.71,85.32,85.32,0,0,1-15,14.86,61.54,61.54,0,0,1-20.11,10.91,33.59,33.59,0,0,0-12.09,6.52A50.62,50.62,0,0,0,579,1314.67,77.85,77.85,0,0,1,563.84,1330c-7.49,5.94-11.4,8.62-15.2,11.24l-.51.36c-3.37,2.37-6.86,4.81-13.28,9.87-5,3.92-8.05,6.42-10.69,8.61l-.68.76c-1.1,1.67-2.31,3.34-3.6,5.06-3.54,4.68-3.87,10.65-1,17.74l3.72,4.93c1.71,2.17,3.76,4.78,6.46,8.19a68.12,68.12,0,0,0,10.9,11.4,97.3,97.3,0,0,1,14.51,15.18,100.73,100.73,0,0,1,11.4,17.6,71.07,71.07,0,0,0,8.59,13.19c5.07,6.44,7.9,9.69,10.63,12.84l1.17,1.34c3,3.42,6.09,7,11.6,13.95a114.32,114.32,0,0,0,11.09,12.43,142.47,142.47,0,0,1,13.31,14.9,95.14,95.14,0,0,1,7.6,11.09l.36.62.57.43a23.11,23.11,0,0,0,14.15,4.53c7.35,0,14.64-2.83,20.33-5.49l1.08-.73c.25-.2.5-.39.92-.69a42.17,42.17,0,0,0,9.82-10.41,69.17,69.17,0,0,1,15.23-16.09,83.41,83.41,0,0,1,18.1-11.18,54.92,54.92,0,0,0,12.82-7.9,131.41,131.41,0,0,0,12.09-10.55l.41-.4a158.94,158.94,0,0,1,14.66-12.87c7.13-5.6,10.65-8.41,14.17-11.23l14.14-11.17c6.9-5.42,10.2-8.16,13.74-11.11l.68-.57c3.22-2.68,6.86-5.71,13.63-11,1.4-1.12,2.6-2.11,3.69-3l1.79-1.94a42.3,42.3,0,0,1,8.07-7.56l.49-.41a129.12,129.12,0,0,1,12.76-11.31c2.91-2.29,5.2-4.09,7.14-5.65l.52-.52c2.78-3.43,6.63-8.76,8-15.47A28.74,28.74,0,0,0,849.64,1351.37Z"/><path class="cls-5" d="M1124,2270.8c-.27-2.43-.55-4.89-.79-7.38s-.49-4.67-.77-7l-.1-.5c-1.11-4-2.36-8.14-3.66-12.38-.75-2.36-1.47-4.72-2.15-7a99.63,99.63,0,0,0-7.39-17.15l-.23-.37a111.2,111.2,0,0,1-8.37-13.5,128.16,128.16,0,0,1-6.21-15.69l-.24-.63a77.58,77.58,0,0,0-7.49-12.67,14,14,0,0,1-2.55-6.34l-.13-.94-.59-.74a217.7,217.7,0,0,0-20.49-22.07c-3.88-3.66-9.38-6.52-16.15-9.86l-.39-.2a133,133,0,0,1-14.24-7.89c-4.26-2.79-8.23-5.93-11.75-8.71-5.88-4.59-11.43-8.94-17.29-11.46-6.77-2.93-14.67-4.52-23.1-6.22-3.76-.75-7.51-1.5-11.26-2.4l-1.78-.41c-11.27-2.68-22.92-5.44-34.12-6l-8-.46c-5.82-.34-11.32-.66-16.7-.66a86.33,86.33,0,0,0-12.08.72c-8.79,1.14-17.75,4.28-26.4,7.3-2.21.76-4.42,1.51-6.62,2.24l-2.29.77c-3.5,1.13-7.1,2.16-10.7,3.2l-.47.13c-7.86,2.27-15.28,4.42-21.56,7.73-10,5.29-19.69,12.45-28.69,19.4-10,7.68-18.84,14.68-26.22,22.67a204.13,204.13,0,0,0-21,27.62c-3.18,4.93-5.32,11.56-7.47,18.21-1.47,4.57-3,9.29-5,14-3.32,7.84-5.24,16.43-7.26,25.49l-1.65,7.2c-1,4.15-2.11,8.12-3.1,11.63-1.94,6.9-4,14-4.4,20.74-.28,3.88-.69,7.64-1.1,11.3l-.13,1.18c-.84,7.19-1.71,14.62-1,21.13.5,5.2,2.87,10.89,5.4,17a118.8,118.8,0,0,1,5.48,15,127.46,127.46,0,0,1,3,15.23l.12.78c1,6.34,1.86,12.32,4,17,5.84,12.57,10.86,21.73,16.31,29.71,4.18,6.05,9.85,11.62,15.9,17.56,2.43,2.36,4.82,4.75,7.14,7.14a201.6,201.6,0,0,0,25.17,22.15c2.44,1.82,4.82,3.49,7.13,5.1l.3.19a155.41,155.41,0,0,0,16.43,7.53c3.86,1.57,8,3.26,12.28,5.25a209.12,209.12,0,0,0,71.31,18.4c2.08.12,4.16.18,6.23.18a234.75,234.75,0,0,0,25.82-1.92l1.75-.2a146.92,146.92,0,0,1,15.7-.67l1-.14c2.61-.77,5.18-1.53,7.87-2.37,2.91-.92,5.81-1.81,8.76-2.67s6.06-1.63,9-2.36l2.68-.67c1.34-.32,2.68-.63,4-1l2.09-1.1a148.51,148.51,0,0,1,13.49-7.76,196,196,0,0,0,28.81-17.53c5.25-3.77,11-6.43,16.13-8.81,2.3-1.08,4.52-2.12,6.58-3.17l.77-.53c2.08-1.91,4.06-3.78,5.89-5.65,8.17-8.31,15.3-18.5,22.49-29.1a165.69,165.69,0,0,0,9-14.88l1.17-3.32c1.64-4.84,3.33-9.84,5.51-14.85.87-2,1.79-4,2.72-6.08l1.16-2.55c.94-2,1.87-4,2.75-6l.18-.53c.7-2.79,1.35-5.65,2-8.57l.53-2.35c.61-2.79,1.22-5.58,1.86-8.35,2.1-8.94,2.56-18.07,3.05-27.8.13-2,.23-4.14.34-6.45a144.7,144.7,0,0,1,2.2-16.25C1123.48,2283,1124.67,2276.35,1124,2270.8ZM850.46,2109.89h0Z"/><path class="cls-6" d="M2295.72,2253.76l-.1-.59c-.63-2.37-1.4-5.09-2.38-8.46a193.2,193.2,0,0,1-5.29-21.58,184,184,0,0,0-4.59-18.61c-1.37-4.57-2.61-8.31-3.91-11.76l-.25-.52c-.75-1.29-1.54-2.54-2.41-3.88a75.73,75.73,0,0,1-10.55-22.7c-3-10.19-4.29-15.49-5.58-20.86s-2.44-10.15-5.19-19.4c-2.15-7.37-3.24-12.26-3.88-15.35l-1-4.42c-1.17-5.23-2.28-10-5-19.14-2.81-9.57-4.37-14.17-6.08-19.25-1.64-4.89-3.34-10-6.35-20.14a120.28,120.28,0,0,1-3.55-15.18c-.61-2.42-1.08-4.53-1.52-6.53l-.37-1.65c-1.11-5-2.16-9.67-4.94-19-2.81-9.59-4.22-14.87-5.46-19.53l-.47-1.75c-1.25-4.72-2.54-9.59-5.3-18.87-2.11-7.17-3.5-11.71-4.72-15.56l-.12-.33a167.29,167.29,0,0,1-7.52-20.84c-2.82-9.54-4.33-14.36-6-19.42l-.88-2.79c-1.32-4.19-2.87-9.06-5.28-17.28l-2.69-9c-1.32-4.42-2.26-7.57-3.19-10.75l-.83-2.7-.32-.72a81.09,81.09,0,0,1-8.13-19.19,174.3,174.3,0,0,1-4.88-20.28l-.17-.59c-1.32-3.54-3-8.14-5.14-15.44a103.57,103.57,0,0,1-4.33-22.82l0-.38a76.68,76.68,0,0,0-3.36-17.6,58.87,58.87,0,0,0-7-15.9,87,87,0,0,1-9.77-22.24c-3-10-4.16-15.22-5.39-21-.56-2.51-1.12-5-1.89-8.06l-.24-.67a96.5,96.5,0,0,1-5.59-14.69c-3.21-10.9-4.35-16.41-5.36-21.33-.66-3.1-1.29-6.06-2.37-10.25l-.43-1.43c-.22-.72-.44-1.47-.68-2.3-.64-2.17-1.15-4.1-1.65-6-2.78-9.51-4-14.63-5.19-19.59l-.37-1.54c-1.12-4.6-2.27-9.36-4.9-18.2-3-10-4.56-14.78-6.12-19.43-1.73-5.08-3.4-10.11-6.41-20.3-2.94-9.94-4.22-15.09-5.63-21-.14-.56-.29-1.12-.41-1.68l-.09-.34c-1-3-2.06-6.52-3.43-11.12a130.91,130.91,0,0,1-3.45-14.06c-1.54-6-2.23-10.06-2.87-14a132.48,132.48,0,0,0-4.3-18.71c-.29-1-.58-1.87-.93-2.92-1.31-3.3-2.51-5.79-3.62-8l-1.61-3.36-.57-1c-.15-.25-.3-.5-.44-.7-.77-1.19-1.53-2.49-2.36-4l-.63-1.12-.78-.28c0-.33-.05-.63-.08-.91l-.31-3.1h-1a84.27,84.27,0,0,1-3.53-8.93l-.3-.66a30.6,30.6,0,0,0-6.72-8.3c-3.82-3.22-8.9-4.44-14.48-3.37a4,4,0,0,1-.41.09l-.38.07a26.68,26.68,0,0,0-12.45,7.1,22.67,22.67,0,0,0-3.54,4.65l-.46.82,0,.94c0,1.13.09,2.21.18,3.17a17.86,17.86,0,0,0-1.44,1.4l-.79.86-.1,1.17a25,25,0,0,0,1.89,11.35,5.74,5.74,0,0,1,.33,3.76l-.22.79.16.8a5.09,5.09,0,0,0,.28,1,134.23,134.23,0,0,0,6.39,17.73,165.51,165.51,0,0,1,7.39,20.59c2.35,7.94,3.51,12.86,4.33,16.6l0,0,.92,4.37c.92,4.54,1.87,9.23,4.63,18.66a153.78,153.78,0,0,1,4.94,21.63,125.4,125.4,0,0,0,4.17,18.23,154.44,154.44,0,0,0,6.3,18,210.21,210.21,0,0,1,12.4,42.13,163.19,163.19,0,0,0,4.39,18.24c1.83,6.22,3.07,10.48,4.11,14l1.65,5.65c1.39,4.87,2.8,9.75,5.67,19.5s4.48,14.33,6.05,18.89c1.67,4.84,3.4,9.84,6.41,20a57.45,57.45,0,0,0,6.92,15.77,85,85,0,0,1,9.58,21.89,80.65,80.65,0,0,1,3.62,24.22,51,51,0,0,0,2.48,16.59c2.81,9.49,4.51,14.08,6.15,18.5s3.54,9.64,6.69,20.26a170.79,170.79,0,0,0,6.28,18.1,204.53,204.53,0,0,1,7.08,20.48c1.7,5.75,2.91,9.8,3.92,13.16l3.44,11.55c1.08,3.62,2.37,8,4.27,14.44,2.83,9.52,4.06,14.58,5.25,19.48l.22.89c1.19,5.11,2.32,9.76,5.09,19a212.27,212.27,0,0,1,5.2,21,180.79,180.79,0,0,0,4.6,18.65,53.1,53.1,0,0,0,7,15.4,80.59,80.59,0,0,1,10,22.15,91.23,91.23,0,0,1,4,23.46,63,63,0,0,0,3,17,106.6,106.6,0,0,0,6.61,17.54A139.68,139.68,0,0,1,2215,2141a94.88,94.88,0,0,1,4.22,23.05,69.35,69.35,0,0,0,3.15,17.37l.11.35.12.38v.49l.45.79c1.49,2.63,3.08,5.28,4.71,7.88l2.5,12.41.15.53c1.32,3.57,3,8.23,5.21,15.76a82.77,82.77,0,0,0,6.67,16.6l3.07-1.57-2.91,1.88a107.5,107.5,0,0,1,8.46,21.15c1.51,5.09,2.62,9.43,3.59,14.06l.29.82c4.3,8.67,10.85,12.93,20,12.93a34,34,0,0,0,5-.39l1.85-.32c.35-.11.68-.24,1-.37l.18-.08c1.12-.31,2-.62,2.83-.93l.39-.18c.88-.47,1.72-1,2.59-1.46l.8-.46.82-.66C2296.6,2274,2296.42,2262.09,2295.72,2253.76Z"/><path class="cls-7" d="M1252.91,1655.41c-.64-3.22-1.24-6.26-1.64-9.29l-.12-.55c-.77-2.55-1.44-5.22-2.11-8.47a97.19,97.19,0,0,1-2.17-16.94l0-.72a84.57,84.57,0,0,0-1-12.56c-.32-2-.75-4.19-1.26-6.4l-4.33-17.75a216.84,216.84,0,0,0-9.16-23.79c-12.2-25.86-40.07-19.3-56.78-15.37a3.48,3.48,0,0,1-.64.08l-8.44,3.17c-6.24,2.45-12.48,4.86-25,9.65a124.1,124.1,0,0,0-22,10.59l-.61.36c-.26.15-.52.31-.79.46l-.74.53c-1.37,1.28-2.78,2.51-4.2,3.75a91,91,0,0,0-8.25,7.84c-10.58,11.71-5.89,27.13-2.13,39.51l.46,1.51a7,7,0,0,1,.3,2.33l0,.58.17.55c3.08,9.92,4.73,15.14,6.4,20.34,1.76,5.44,3.48,10.92,6.89,21.88,3.3,10.68,5.32,15.7,7.27,20.55,2.18,5.48,4.44,11.15,8,22.6a185.41,185.41,0,0,0,7.47,20.39,223.45,223.45,0,0,1,8.24,22.64,134.22,134.22,0,0,1,5.1,22.33l.19.73c2.15,5.66,5.53,12.55,12.61,15.55a22.58,22.58,0,0,0,9,1.72,40.82,40.82,0,0,0,8.86-1.1c.68-.2,1.33-.36,2.07-.55l5.86-1.61,1.07-.33c.93-.29,1.82-.57,2.88-.87a6.24,6.24,0,0,1,1.38-.29l3.93-1,.91-.39c2.72-1.65,5.43-3.15,8.08-4.62,12.84-7.11,25-13.82,29.91-32.59,1.29-4.91,2.3-9.85,3.27-14.63,1.68-8.26,3.27-16.06,6.2-23.51l.13-.42a174,174,0,0,1,5.18-16.89l.14-.52a88.61,88.61,0,0,0,.32-33.48C1253.55,1658.7,1253.23,1657,1252.91,1655.41Z"/><path class="cls-7" d="M1467.79,1692.22c-1-3.52-2.21-7.65-4-14l-.31-1.1a100.36,100.36,0,0,1-3.92-21.88A72.24,72.24,0,0,0,1458,1644l-.15-.66-.39-.56a13.58,13.58,0,0,1-2.38-6,14.33,14.33,0,0,1-.08-2.9l0-.61-.18-.59c-2.14-7.07-3.78-11.38-5.24-15.23-2.14-5.68-4.35-11.54-7.68-23.36-2.9-10.29-4.44-15.93-5.87-21.13l-.41-1.48c-1.52-5.63-3-11.24-6.19-22.47s-4.81-16.71-6.47-22.26-3.37-11.2-6.61-22.68a194.6,194.6,0,0,0-7-20.94l-.33-.85c-.17-.44-.35-.89-.51-1.34l-.23-.62-.44-.5a61.62,61.62,0,0,0-6.67-6.48c-8.29-6.79-20.29-5.61-29.82-3.83l-.48.13c-1.34.46-2.76,1-4.34,1.56l-1.25.46-.73.28-.95.53c-12.88,10.15-13.57,27.17-14.19,42.18l-.14,3.27c-.68,13.91-.93,27.76-1.07,38.26v.18l.81,9.24,1.31,16.68a81.49,81.49,0,0,1,0,9.8,72.81,72.81,0,0,1-1.54,10.12l-.37,1.52a62.87,62.87,0,0,0-1.86,9.45l0,.32,0,.32c2.41,24.1,13.84,45.42,33.05,61.65a6.2,6.2,0,0,1,1.85,2.48l.25.65.49.5c.9.94,1.77,1.91,2.58,2.81,1.92,2.26,3.51,4.27,4.87,6.14a119.23,119.23,0,0,1,8,12.75l.44.62c5.43,6.16,10.41,10.53,15.69,13.76a73.78,73.78,0,0,0,16.2,7l1,.14a4,4,0,0,0,.84-.09l1.14-.07c11.47-.68,28.81-1.71,33.52-16.45a37.51,37.51,0,0,0,1.41-12.61Z"/><path class="cls-8" d="M2124.4,2715.33a26.55,26.55,0,0,0-3.74-8.78v-.37l-.8-.73-.84-1.11h-.39c-3.83-3.27-8.85-6-15.28-8.42-4.19-1.54-9-3.4-14.43-5.56-7-2.71-14.88-5.79-23.35-8.88-6.81-2.46-13-6-19.06-9.48s-11.55-6.63-17.42-8.72c-5-1.76-11-2.75-17.54-3.85a136,136,0,0,1-21.16-4.67l-.9-.17a7.5,7.5,0,0,1-3-.84c-17.49-8.87-29.69-3.57-43.83,4.27a7,7,0,0,1-1.86.69l-.77.28a53.11,53.11,0,0,1-13.93,4.77,51.38,51.38,0,0,1-22.54-.79l-6.7-.14c-6.51,0-12.33,2.7-17.78,8.16l-.54.69c-1.67,2.84-3.76,6.34-6.59,10.76a144.67,144.67,0,0,0-11.35,21.5l-.22.52,0,.56a39.12,39.12,0,0,1-.73,5.15c-.17.81-.35,1.47-.5,2-.81,3-1.08,5.13,2.32,8.36,6.65,6.35,16.79,8.23,24.26,8.69l5.15.07h.54c1-.09,2.06-.14,3.09-.2l.68,0,.59.28h.77c2.09,0,4.42,0,7.17,0,9.85,0,15,.24,20,.48l1.18.06c4.94.24,9.61.47,19.06.47a140.18,140.18,0,0,1,22,1.52l.74.1c2.13.29,4.18.56,6.63.75l.3,0,5-.51c5.31-.54,10.81-1.11,16.41-1.45,7-.47,14.58-.71,23.07-.76,6.78-.06,13.69,0,21.79.24h.27l3-.37a159.11,159.11,0,0,1,21.6-1.29c10.11,0,14.91-.23,19.54-.45l.81,0c5-.2,10.09-.41,19.94-.41,1.52,0,2.83,0,4.11,0h.35l.34-.06c8.28-1.45,13.18-5.09,14.57-10.84l.19-.79Z"/><path class="cls-8" d="M1599.49,2712.3a63.62,63.62,0,0,0-10.58-11.53,56.3,56.3,0,0,0-22.41-12,41.21,41.21,0,0,0-12.21-1.28l-1.89.17-.61.32a13.71,13.71,0,0,1-8.21,1.43l-.87-.13-.82.31a4.48,4.48,0,0,0-.57.16A73.42,73.42,0,0,0,1517,2702l-.33.24a8.63,8.63,0,0,1-11.37-12.94c.39-.39.79-.76,1.37-1.31l.62-.58.33-1c.33-.73.86-1.72,1.46-2.82,2.79-5.16,4.87-9.38,4.13-12.75a9.63,9.63,0,0,0-3.83-5.58l-.42-.4-.69-.25a149.38,149.38,0,0,0-15.51-4.56l-.49-.1h-.43a39.35,39.35,0,0,0-7.84,1l-.81.29a58.17,58.17,0,0,1-25,6.57h-1a56.93,56.93,0,0,1-7.21-.51,41,41,0,0,1-8.67-1.83c-1.32-.38-2.69-.77-4.18-1.14-12.6-3.09-20.61,8.66-23.31,12.58-.16.18-.31.37-.5.63a40.67,40.67,0,0,0-3.18,5.47,129.66,129.66,0,0,0-5.42,12.93,136.83,136.83,0,0,0-4.22,14l-.1.68c-.15,3.44-.18,7.39,1.36,10.72,2.53,5.42,7.71,6.5,11.88,7.37l.85.18a59.84,59.84,0,0,1,8.16,2.28l.79.19c.6.1,1.17.2,1.57.24,2.73.47,4.84.82,6.94,1a97.1,97.1,0,0,0,11.22.56l2.53,0c2.48,0,4.65-.16,6.62-.36a60,60,0,0,0,6.37-1,113.25,113.25,0,0,1,17.21-2.75c2.89-.22,5.66-.27,8.89-.27l8.06.07c5.59.07,11.49.33,16,.55,4.79.2,9.62.31,15.2.35,5.41,0,9.9,0,14.3-.36,1.87-.14,3.71-.36,5.83-.61l1.4-.17c3.08-.41,5.92-.7,8.49-.88s5.44-.33,8.68-.37c2.81-.07,5.56,0,8.49,0s6,.3,9.21.74c1.64.2,3.31.46,4.95.78l.35.07h.35c3,0,10.85-.09,13.74-6.05h0c1.31-2.71,1.36-5.89.15-9.72Z"/></g><g id="outline"><path class="cls-9" d="M2583.27,1994.27c-9.08-9-23.58-13.53-37.38-13.53s-27.23,5.56-36.28,14.64-15.77,22.47-15.77,36.28,6,28,15,37,23.23,13.36,37,13.36,25.13-7.15,34.17-16.22,15.08-20.33,15.08-34.17S2592.31,2003.34,2583.27,1994.27Z"/><path class="cls-9" d="M2431.56,1353.31c9.77-2.35,19.33-5.07,28.13-7.42,5.38-1.42,10.63-2.69,16.15-4s11.36-2.69,17-4.21l8.42-2.24,2.11-.59.59-.17,1.66-.52a28.63,28.63,0,0,0,3.59-1.62,21.77,21.77,0,0,0,7.66-7.11,20.86,20.86,0,0,0,3.35-11.56,23.06,23.06,0,0,0-5.59-14.6l-2.66-3.18-5.11-6.28c-3.24-4.11-6.8-8.8-10.67-13.5s-7.9-9.08-11-12.84c-3.42-3.94-5.9-7.46-9.6-12.56a127.41,127.41,0,0,0-12.12-14.32,13.86,13.86,0,0,0-21.44,17.36l.1.14c3,4.52,5.73,8.66,8.11,13.12a150.54,150.54,0,0,0,9.53,15.71l7,9.42c1,3.35,1.52,6.49.9,8.84-.9,3.49-5.7,6.49-10,9.25-2.21.55-4.42,1.07-6.59,1.62-11.53,2.93-21.88,5.9-32.48,8.11-5.28,1.14-11.08,2.28-16.91,3.62s-11.56,2.83-17.19,4.31l-.76.24c-.52.17-1,.35-1.52.55a17.39,17.39,0,0,0-2.93,1.38,21,21,0,0,0-5.11,4.14,22.28,22.28,0,0,0-4.94,9.08,26.36,26.36,0,0,0-.31,12.53,28.21,28.21,0,0,0,4.49,10.63l1.07,1.45.38.45.69.83,1.38,1.69c3.73,4.52,7.56,9.08,11.53,13.53l11.39,12.6q5.33,6.06,10.56,12.53c3.52,4.21,6.77,8.25,9.7,12.36,1.17,1.62,2.24,3.24,3.35,4.94,2.35,4.94,4.07,9.84,2.62,13.29-1.21,2.93-4.52,5.42-7.94,7.8l-2.07,1a107.52,107.52,0,0,1-13.57,5.28c-4.73,1.45-10.29,2.93-15.53,4.28s-10.42,2.55-15.95,3.73-11.56,2.52-17.29,4l-8.53,2.24-2.11.59-1.31.35a28,28,0,0,0-3,1.1,22.27,22.27,0,0,0-7.8,5.56,20.74,20.74,0,0,0-5.14,12.94,21.3,21.3,0,0,0,2.31,10.11c.28.55.59,1.14.9,1.66l.86,1.35c.31.48.59.79.86,1.17l.72.9,2.69,3.21,5.25,6.39,10.87,13.29c3.76,4.49,7.73,8.84,11.15,12.84,3.62,4,6.63,7.9,10.46,12.6s7.87,9.32,12,13.5a13.87,13.87,0,0,0,21.4-17.47l0-.07c-3.11-4.63-6.11-8.94-8.91-13.5s-6.32-10-9.8-14.88l-6.08-8.18c-.79-2.28-1.62-4.52-2.21-6.83-.93-3.73-1.55-4.59,1.28-6.8s7.56-3.21,10.77-4.59a1.44,1.44,0,0,0,.35-.14c1.62-.38,3.24-.72,4.83-1.14,5.8-1.45,11.25-2.83,17.4-4.66A137.65,137.65,0,0,0,2431,1481l7.9-3.87c2.35-1.14,4.49-2.11,6.7-3a121.59,121.59,0,0,1,14.15-4.59,38.31,38.31,0,0,0,4.31-1.48,23.52,23.52,0,0,0,7.15-4.63c.38-.38.76-.76,1.14-1.17a17.51,17.51,0,0,0,1.24-1.55,19,19,0,0,0,2.21-3.83,19.8,19.8,0,0,0,1.66-9.39,21.4,21.4,0,0,0-3.87-10.84l-5.83-7.52a139.69,139.69,0,0,1-8.63-12.56c-2.73-4.45-6.08-10.11-9.73-15.29s-7.49-10-11.22-14.64c-2.62-3.18-5.35-6.35-8.11-9.49-4.14-5.94-8.15-13.22-4-19.33A14.77,14.77,0,0,1,2431.56,1353.31Zm-73.63,129.3a.11.11,0,0,1,0-.07l.1.1.17.24Z"/><path class="cls-9" d="M2440.5,2738.74h-.07c-7.25-.1-14.43-.31-21.47-.79s-14-1.24-21.47-2.14-15.43-1.52-23.13-1.9-15.33-.48-23-.45-15.43.21-23.23.72-15.46,1.45-22.51,2.07c-14,1.31-28,1.24-42.91,1l-69.31-1.35c-.35-.07-.66-.17-1-.21-9.49-1.07-19.05-2.42-24.27-11.29-4-6.8-6.8-13.81-12-19.64-.9-1.73-1.9-3.76-3.18-6.21-7.35-14.5-20.09-24.89-38.9-31.83-4-1.52-8.59-3.28-13.63-5.25-7.21-2.83-15.36-6-24.3-9.25-4.28-1.55-9.11-4.31-14.26-7.28-6.56-3.73-14-8-22.4-11-7.77-2.76-15.5-4-23-5.25a111.27,111.27,0,0,1-16.36-3.49c-14.43-8.15-28.27-18.64-32.62-34.38l-4.69-27.55a66.61,66.61,0,0,1,7.52-26c7.9-7.59,12.91-18.12,11.49-30.1-1-8.39-3.18-16-5.32-23.33-1.76-6.08-3.45-11.77-4.11-17.05s-.52-11.39-.35-17.74c.21-7.63.41-15.5-.72-23.75-1.17-8.49-3.69-16.09-6.14-23.44-2-5.94-3.83-11.53-4.59-16.71-1.14-7.66-2.73-15.08-4.25-22.26-1.35-6.32-2.62-12.29-3.59-18.23-.79-5-.52-10.8-.24-17,.35-7.49.72-16-.76-24.65-1.31-7.66-3-15.19-4.52-22.47-1.35-6.21-2.62-12.08-3.69-18-1.55-8.28-4.25-15.74-6.83-22.92-2.14-5.94-4.18-11.53-5.21-16.78-1.14-5.83-1.86-11.91-2.62-18.36-.83-7.28-1.73-14.84-3.31-22.51-1.24-5.76-2-11.84-2.73-18.26a225.82,225.82,0,0,0-3.52-22.57c-1.28-5.9-2.42-11.77-3.59-18-1.38-7.35-2.83-14.95-4.59-22.51a198.44,198.44,0,0,0-7-22.16,178.39,178.39,0,0,1-5.63-17.26c-1.45-5.9-2.69-11.77-4-18-1.52-7.28-3.11-14.77-5-22.26s-4.45-14.81-6.87-21.78c-2.07-6.08-4.07-11.84-5.63-17.57-1.21-4.42-2.38-8.8-3.56-13.19-2.42-8.91-4.8-17.78-7.32-26.61-2.38-8.35-4.94-16.64-7.42-24.68-1.52-4.94-3-9.87-4.52-14.81-2.28-7.52-5-14.64-7.77-21.47-2.35-6-4.56-11.67-6.35-17.33s-3.21-11.67-4.73-17.95c-1.73-7.15-3.52-14.53-5.94-21.92a143.8,143.8,0,0,1-4-17.5,158.66,158.66,0,0,0-5.49-22.85c-2.87-8.35-7.28-15.67-11.22-22.13-3.21-5.25-6.21-10.22-7.87-14.91a153.83,153.83,0,0,1-4.69-17.47,177.85,177.85,0,0,0-6.18-22.44,194.14,194.14,0,0,0-9.66-21.06c-2.9-5.73-5.63-11.11-7.7-16.5s-3.66-11.25-5.35-17.43c-.59-2.11-1.17-4.21-1.79-6.35a12.7,12.7,0,0,0,0-1.62c-.45-7-4.11-13.22-.76-20.16,4.25-8.8,13-15,19.33-22.78,7.73-5.83,17.67-12.56,33.76-21.23a17.23,17.23,0,0,0,8.56-11.11c.14-.24.31-.45.45-.72a31.47,31.47,0,0,0,1.9-4.18,23.16,23.16,0,0,0,1.21-5.76,21.26,21.26,0,0,0-.55-7.35l-.14-.55-.07-.28-.14-.52-.31-1c-.41-1.38-.86-2.66-1.31-3.93-.9-2.55-1.9-4.94-2.9-7.21-2-4.49-4.07-8.56-5.87-12.29s-3.31-7.11-4.45-10.25a47.69,47.69,0,0,1-2.21-9.25c-1-6.9-1-15.57-2.24-25.65a79.79,79.79,0,0,0-3.56-16.09,111.17,111.17,0,0,0-6-14.15c-2.87-5.73-5.38-10.7-7.08-15a17.27,17.27,0,0,0-2.31-8.49c-.76-5.14-.86-11.67-1.1-19.26a113.31,113.31,0,0,0-1.35-15.19c-.17-1.35-.52-2.8-.79-4.18l-.76-3.24-1.52-6.32-6.11-25.16-3.14-13.12c-1.1-4.45-2.28-8.8-3.42-13s-2.24-8.28-3.24-12.25l-1.42-5.87-1.31-6.18-5.76-25.54c-1.86-8.32-3.35-16.15-4.59-24.47l-3.73-25.89-4.28-25.65-1.9-11.39a13,13,0,0,0,.07-2.35c-.62-9.22-1.62-19.05,9.39-21.47a42.28,42.28,0,0,1,11.49-.66c8.08,1.9,12.81,2.62,17.4,3.31s9.08,1.42,18,3.59c9.39,2.35,13.95,3.59,18.74,4.94s9.8,2.73,19.71,5.18c9.29,2.31,13.77,3.62,18.5,5s9.91,2.86,19.88,5.35a138.27,138.27,0,0,0,22,3.8,104.38,104.38,0,0,1,17.26,3,120.25,120.25,0,0,1,16.91,5.32,151.13,151.13,0,0,0,21.06,6.66,92.91,92.91,0,0,0,22,2.55,122.55,122.55,0,0,0,28.13-3.45c16.6-3.94,28.68-14.29,39.35-23.44l2.45-2.14c14-11.94,23-23.75,28.93-38.21a17.57,17.57,0,0,0,.66-1.9c5.66-20,5.76-20.33,10.67-40.59,2.59-10.67,3.49-16.19,4.38-21.54.79-4.94,1.59-9.63,3.87-19.05a137.42,137.42,0,0,1,5.45-18,174.75,174.75,0,0,0,6.56-21.71c2.52-10.42,3.59-15.77,4.59-21s1.93-9.8,4.28-19.5a122.59,122.59,0,0,1,5.49-17.81,171.26,171.26,0,0,0,6.7-21.85c2.38-9.87,3.69-14.77,5-19.71s2.69-10.18,5.18-20.4l.79-3.31c4.18-17.19,4.49-18.6,7.87-38.42.9-5.45,1.62-9.35,2.21-12.6a263.48,263.48,0,0,0,3.83-28.34c.93-9.56,1.59-14.15,2.31-19.05.76-5.11,1.52-10.36,2.52-20.78a75.22,75.22,0,0,0-1.55-25.47,40,40,0,0,1-.93-15,183.36,183.36,0,0,1,2.52-18.47c.93-5.21,1.9-10.6,2.9-21.26a135.58,135.58,0,0,1,2.76-17.81A154.68,154.68,0,0,0,2169,660.5c1.14-12,1.48-16.95,1.9-23.2.28-4.18.62-8.94,1.28-17a2.61,2.61,0,0,1,0-.52c.9-17.67-11.25-34.38-29.55-40.59-15.88-5.38-31.79-.62-40.56,12.12-6,8.7-9.15,20.23-12.77,33.62-.62,2.31-1.28,4.66-2,7.11-1.66,5.94-2.76,12-3.9,18.54-1.07,5.87-2.17,11.94-3.73,18.12a132.78,132.78,0,0,1-5.21,14.74c-.59,1.42-1.14,2.9-1.73,4.42a63.52,63.52,0,0,1-5.14,8.39,58.8,58.8,0,0,1-11.18,11.11c-1.07.55-2.17,1.07-3.21,1.66a75.77,75.77,0,0,0-21.23,18.05,76.93,76.93,0,0,0-13.22,24.68,86.27,86.27,0,0,0,1,54.33,84,84,0,0,0,10.91,21.19,9.4,9.4,0,0,0,1.55,3c6,8,11.63,15.46,11.74,26,.1,9.15-2.52,19.12-4.18,28.27-.35,1.14-.69,2.21-1.1,3.31-.83,2.38-1.79,4.8-2.87,7.32l-3.45,8.15-7,16.53c-4.52,11-9.22,22.13-13.63,33.34s-8.94,22-13.29,33.48l-12.74,33.48-2.21,6.08a28.88,28.88,0,0,1-5.76,7.32c-6.32,5.63-13.88,5.25-21.37,3.28-1.1-.62-2.28-1.31-3.56-2.11-3.18-2-6.49-4.14-10-6.45-7.42-4.8-15.81-10.29-25.44-15.67a226.15,226.15,0,0,0-20.92-9.84c-5.59-2.38-11.39-4.87-16.95-7.7-4.42-2.24-9-5-13.84-7.94a230.05,230.05,0,0,0-22.57-12.39l-2.59-1.21c-11.36-5.18-23.06-10.56-35.55-15.71-8-3.28-16.29-6.11-24.33-8.8-4.94-1.66-10-3.35-15-5.21-8.35-3-16.91-5.56-25.23-8-4.8-1.45-9.7-2.86-14.57-4.42a120.58,120.58,0,0,1-15.08-6.56c-7-3.38-14.91-7.21-23.71-9.63-8.42-2.28-16.67-2.9-24.68-3.52a123.63,123.63,0,0,1-17-2c-8.8-2-17.67-3.35-26.23-4.63-4.94-.76-9.91-1.48-14.88-2.38-9.53-1.69-14.77-13.67-15.77-24.78a76.82,76.82,0,0,0-3.76-17.19,72.12,72.12,0,0,1,12.6-38.59l2.28-2.66c1.62-2,3.14-3.94,4.52-5.87,5.63-7.87,9.8-15.53,13.84-22.71,2-3.8,3.76-6.45,6.35-11.67a111.19,111.19,0,0,0,5.38-13.43c2.14-6.35,3.83-12.15,5.59-17.54a79.66,79.66,0,0,1,22.37-26.13c33.86-14.53,46.25-36.28,50.53-52.81,5.83-22.61-.31-47.22-16.84-68.9-3.94-9.66-6.7-19.81-5.49-29.89,2-5.42,4-11.15,5.59-17.36a105.19,105.19,0,0,0,2.73-14.53c.28-2.52.45-5.25.48-7.63s.07-4.63,0-7a135.14,135.14,0,0,0-3.42-27.89,121.47,121.47,0,0,0-4.11-13.95,87.11,87.11,0,0,0-6.7-13.84,165.74,165.74,0,0,0-16.36-22.13l-3.73-4.42-3.52-4.49c-2.45-3.18-5.07-6.7-8.18-10.32a92.58,92.58,0,0,0-10.7-10.8,71.41,71.41,0,0,0-6.7-4.94c-1.17-.72-2.49-1.52-3.62-2.17s-2.17-1.21-3.28-1.73a153.5,153.5,0,0,0-25.92-9.91c-4.25-1.24-8.46-2.38-12.6-3.38-2-.48-4.38-1.1-6.77-1.55s-4.76-.86-7.15-1.21a156,156,0,0,0-27.58-1.07,222,222,0,0,0-26.58,2.49c-4.52.72-9,1.62-13.57,2.8-2.28.59-4.56,1.21-6.8,1.9s-5,1.69-7.28,2.62c-9.39,3.94-16.84,8.7-23.51,12.32-1.66.9-3.28,1.79-4.83,2.55l-2.28,1.1-2.76,1.21-11.18,4.9-22.4,9.77c-7.94,3.49-15.15,6.94-22.09,9.7-3.45,1.38-6.8,2.62-10.11,3.59-3.49,1-7.56,2.14-11.18,3a151.83,151.83,0,0,1-21.75,4.11,117.8,117.8,0,0,1-21.54.1c-7.42-.55-15.43-1.59-23-2.76a221.35,221.35,0,0,1-22.26-4.76l-5.42-1.55-1.35-.41c-.55-.17-.55-.21-1.93-.59a32.09,32.09,0,0,0-6.63-1.17,29.5,29.5,0,0,0-26,11.87,27,27,0,0,0-5.11,15.84,30.35,30.35,0,0,0,1,7.49l1,3.49c1.38,4.59,3,9,4.66,13.22,3.45,8.39,7.25,16,10.36,23,3.31,7.46,6.73,15.29,11,23.37a131.28,131.28,0,0,0,7.32,12.22,86.88,86.88,0,0,0,9.56,11.77,145.71,145.71,0,0,0,16.46,14.43,23.34,23.34,0,0,1,3.8,8.39c1.14,5.42-.69,10.6-3.28,15.43-15.81,21.37-21.61,45.46-15.88,67.62,4.31,16.84,17.09,39.07,52.36,53.57a43.67,43.67,0,0,1,10,9.32c3.62,4.59,5.94,9.87,8.77,14.84,1.28,4.59,2.52,9.49,4,14.95a116,116,0,0,0,4.69,13.74,71.16,71.16,0,0,0,3.59,7.28c1.31,2.24,2.66,4.45,4.11,6.49,5.76,8.32,12.39,14.95,17.95,20.71l2.24,2.38a106.18,106.18,0,0,1,15.22,56.33l-.1,1.69-.1,4.35c-.07,1.14-.14,2.28-.24,3.45a10.63,10.63,0,0,0,.07,2.59c0,1.69,0,3.38-.07,5l-.1,7.11c-.07,2.21-.17,4.35-.35,5.59a11.48,11.48,0,0,1-2.21,4.73,3.32,3.32,0,0,1-.45.48.11.11,0,0,1-.07,0v0c-1.1.59-3,1.38-5,2.21-4.14,1.62-9,3.35-14,5.35a159.18,159.18,0,0,0-15.15,6.94c-2.52,1.31-5.07,2.8-7.49,4.28l-6.39,4c-8.53,5.32-17.12,10.84-25.61,16.71l-12.36,8.8-12.29,8.91c-4.18,3.07-8.35,6.28-12.5,9.73-2.11,1.73-4.18,3.56-6.21,5.42s-3.94,3.62-5.83,5.49a196.75,196.75,0,0,0-21.54,24.47c-1.66,2.28-3.28,4.59-4.83,7-.69,1.07-1.83,2.93-2.52,4.28s-1.48,2.83-2.14,4.21c-2.52,5.49-4.35,10.46-6.11,15.22-3.42,9.66-6.66,17.88-10.15,27.82l-10.15,28.58c-2.76,8.18-6.9,17.19-10.67,27.27-.93,2.52-1.83,5.14-2.69,7.8l-.66,2-.62,2.31c-.45,1.55-.79,3.07-1.1,4.56-1.21,6-1.79,11.46-2.35,16.4s-1,9.35-1.79,13.15c-.62,3-2.28,8.56-3.56,13.22l-8,28.86c-1.14,4.18-2.49,8.42-4,12.84a17,17,0,0,0-3.83,11.43c-.38,1.07-.72,2.11-1.1,3.21-1.59,5-3.21,10.56-4.38,16.12s-2,10.91-2.62,16.12-1.14,10.32-1.62,15.22l-.38,4-.28,4.25c-.14,2.8-.17,5.56-.17,8.28,0,5.42.21,10.7.45,15.74l.38,7.42c.07,1.83.07,3.66,0,5.8l-1,14.81a74,74,0,0,0,1.21,19.33c.66,2.83,1.31,5.49,2,8.18s1.66,5.52,2.59,8.22,2,5.25,2.76,7.35,1.48,4,2.11,6c1.28,4,2.28,8.25,3.38,13.12,1.1,4.69,2,9.25,3,14s2,10,3.07,15l1.73,7.49c.69,2.76,1.42,5.52,2.31,8.39a87.56,87.56,0,0,0,4.21,10.87c2,9.25,2.69,18.85-1.55,27.23-5.63,11.08-18.88,15-29.79,18.64a10.62,10.62,0,0,0-4,2.28c-8.66,3.31-13.84,5.35-19,7.39-6.18,2.42-12.36,4.83-24.71,9.56a155.41,155.41,0,0,0-26.68,12.84,118.82,118.82,0,0,1-21.5,10.36c-16,6.14-24.54,22.13-19.88,37.21a163,163,0,0,1,5.18,20.43,198.15,198.15,0,0,0,6.08,24c3.42,11,5.14,16.5,6.9,22s3.49,10.8,6.83,21.61c3.59,11.56,5.87,17.33,8.08,22.85,2,5.18,4,10,7.18,20.3a215.92,215.92,0,0,0,8.42,23.13,180.83,180.83,0,0,1,7.28,19.92,102,102,0,0,1,4.28,19.61,132.14,132.14,0,0,0,5.52,25.27c4.38,14.12,19.47,22.23,33,22.23a30.87,30.87,0,0,0,7.66-.93c12.6-3.31,18.88-5,25.16-6.73s12.36-3.35,24.75-6.59l11-2.87c12-1.79,24.16-2,34.59,5.28,1,.69,1.9,1.38,2.83,2.11,1.52,2.17,3.21,4.35,5,6.56a65.09,65.09,0,0,0,13.67,12.29,58.8,58.8,0,0,0,17.36,7.56c1.17.31,2.38.59,3.56.83,8.49,4.83,13.5,12.56,16.91,21.68,0,.52,0,1,.07,1.52a106,106,0,0,0,2.07,15.29,117.56,117.56,0,0,0,4.31,14,45.38,45.38,0,0,1,2.07,9.29,71.22,71.22,0,0,1,.62,10.25,47.5,47.5,0,0,1-1.35,9.84c-.45,2.14-1,4.94-1.28,7.73a76.26,76.26,0,0,0-.48,8.35,123.94,123.94,0,0,0,1,15.15,99.55,99.55,0,0,0,3.14,15.12,87.56,87.56,0,0,1,2.69,10.67c.55,3.38.86,6.9,1.17,11.15.28,4.07.48,8,.55,11.94s0,8.63.24,13.29.48,9.15.9,13.7.93,9.32,1.73,14.12,1.73,8.94,2.28,12.53,1,7.52,1.31,11.56.62,8.22.83,12.22c.28,7.7.41,17.5,1.17,26.3.35,4.42.72,8.94,1.28,13.57s1.35,9.39,1.93,13.29c1.24,7.8,1.73,15.6,2.52,24.61l2.45,25.61.52,6.32c.14,1.79.21,3.52.24,5.18a45.28,45.28,0,0,1-1,9.53,88.93,88.93,0,0,0-1.93,15.5,124.53,124.53,0,0,0,.66,14.74l2.14,25.75,1.1,13.12a97.82,97.82,0,0,0,2.66,15.33c.66,2.59,1.38,4.94,2,6.83s1,3.52,1.38,5.07a72,72,0,0,1,1.48,10.32,81.27,81.27,0,0,1,.28,10.7c-.1,3.24-.72,6.94-1.14,12.32a107.6,107.6,0,0,0,0,15.29l.93,12.81c.24,4.11.38,8.15.59,12.6s.48,9,.79,13.39c.35,4.25.72,9.18,1.48,14.19a119.12,119.12,0,0,0,3.28,14.46,68.72,68.72,0,0,1,2.14,10.32c.24,1.79.41,3.66.59,5.56l.41,6.08c.24,4,.35,7.73.35,11.91s0,9.15.31,13.74.52,8.94,1.07,13.95a101.77,101.77,0,0,0,2.86,15.15c2.83,9.66,3.24,12.25,4.31,23.26a47.19,47.19,0,0,0,6.77,18.92,35.08,35.08,0,0,0,7.7,8.7,77,77,0,0,1,11.74,22.89l-.1,44.56a92.11,92.11,0,0,1-10.18,28.72c-1.66,1.86-3.31,3.76-5,5.8a94.09,94.09,0,0,0-10.74,16.05,165.38,165.38,0,0,0-7.15,16.19q-1.66,4.5-3.11,9.11s0,.07-.07.1c-4,11.53-8.63,26.13-21.33,30.58-6.39,2.24-12.94,2.59-19.47,3.38-.66,0-1.28,0-1.93.07-7.66.31-15.36.9-22.61,1.42s-14.29.83-21.54,1l-22.3.35c-7.77.21-15.77.72-23.71,1.73s-15.43,2.42-22.16,3.31a202.12,202.12,0,0,1-20.64,1.69c-7,.21-14.19.35-21,0a149.27,149.27,0,0,1-20-2.24l-10.7-2.14c-3.87-.72-7.84-1.48-11.91-2a184.41,184.41,0,0,0-24-1.62c-7.84-.1-15.6.14-23.61.79a179,179,0,0,0-23.71,3.59,173.35,173.35,0,0,1-41.39,4.94l-.17,0a13.79,13.79,0,0,0,.17,27.58,228.92,228.92,0,0,0,23.68-.86,223.37,223.37,0,0,0,23.3-3.59,156.48,156.48,0,0,1,20.33-2.69c6.77-.45,13.88-.55,20.85-.31a154.77,154.77,0,0,1,20.33,1.69c3.28.48,6.59,1.17,10,1.9l11.11,2.38a167.38,167.38,0,0,0,24.09,3.14c8,.55,15.77.52,23.54.41s15.84-.69,23.75-1.66,15.15-2.31,21.88-3.07,13.63-1.14,20.68-1.24l22.23-.1c7.63-.1,15.36-.38,23-.83s14.67-.93,21.85-1.14,14.36-.31,21.64-.28,14,.21,20.71.86a176.4,176.4,0,0,1,20.16,3.35,198.57,198.57,0,0,0,23.82,3.8c8.08.76,16.12.86,23.75.9s15-.07,22.64-.24,15.22-.52,22.51-.79,14.5-.45,21.78-.52H1551l44.53.07c14.7,0,30.24,0,45.49-.9,7.63-.45,14.74-.93,21.92-1.21s14.36-.38,21.61-.38c14.74,0,30,0,44.84-.41s29.31-.52,44.15-.52,30.13-.28,44.87-.66,29.37-.45,44.08-.45,28.79.55,44,1.1c7.56.24,15.15.38,22.68.41s15.08.07,22.82-.17c5.38-.17,10.87-.48,16.33-.9a150.26,150.26,0,0,0,15.84.72,190.17,190.17,0,0,0,21.88-1.1,154.8,154.8,0,0,1,18.4-.93,163.46,163.46,0,0,0,22.26-1.35c1-.14,2-.28,3.07-.38,3.9.17,7.84.35,11.87.59,7.35.41,15.12.83,22.75,1s15.29.21,22.71.21c7.14,0,14.15.14,21,.62s13.57,1.45,21.16,2.45,15.77,1.79,23.61,2.11,15.74.31,23,.28l22.06.07c14.6.17,29.75.55,44.7.45,14.7,0,30.51-.21,46-1.93,7.73-.83,14.84-1.83,21.82-2.38s14-.9,21.26-1,14.43-.14,21.54.07,14,.66,21.26,1.38,15.15,1.42,22.89,1.73,15.43.38,23,.31a13.81,13.81,0,0,0,.07-27.61ZM1847.25,1069.81a67.64,67.64,0,0,1,11.6-18.85c8.94-6.42,19.4-10.7,30.65-9.6,9.56.93,16.78,7,25.47,10q4.61,3,9,5.8c3.76,2.45,7.32,4.76,10.7,6.87a150.86,150.86,0,0,0,15.22,8.42c4.83,4.28,8.84,9.6,7.94,15.88l-.1.62-.1.62a9.75,9.75,0,0,0,3.21,10.15,13.62,13.62,0,0,0,4.45,3.52,13.82,13.82,0,0,0,18.5-6.28l.17-.35c1.21-2.49,2.42-4.94,3.73-7.18s2.52-4.35,4-6.59,3.35-4.94,5.14-7.94,3.45-6.07,4.9-9,2.76-6,4-8.66l3.66-8.39,6.9-16.53c4.56-10.56,9.53-22.26,13.88-33.21l13.6-33.1,13.36-33.21,6.56-16.71,3.31-8.49c1.17-3,2.24-6.25,3.28-9.56s1.86-6.87,2.52-9.94,1.17-5.52,1.79-7.94a148.55,148.55,0,0,1,5.18-15.53l6-17.09c2-5.63,3.87-11.22,5.76-16.88a13.83,13.83,0,0,0-7.08-16.81,13.6,13.6,0,0,0-8.84-1.07,24.39,24.39,0,0,1-18-5.45,52.34,52.34,0,0,1-7-12.46c-4.25-10.77-5.18-23.16-2.07-34.1a45.12,45.12,0,0,1,19.78-26.54,60.18,60.18,0,0,1,16.53-7,98.93,98.93,0,0,1,19.19-2.59l.52,0a13.78,13.78,0,0,0,12.53-9.8,14.1,14.1,0,0,0,.59-4,13.71,13.71,0,0,0-4.69-10.25,34.76,34.76,0,0,1-2-16.12c.79-2.31,1.55-4.69,2.17-7.08,1.86-7.42,3.14-14.43,4.25-20.61,1-5.66,2-11,3.18-15.29.69-2.52,1.38-5,2-7.35,2.45-9,5-18.26,7.52-22.47a10.42,10.42,0,0,1,5.21,2.59c1.45,1.24,2.38,2.76,2.38,3.76-.66,8-1,12.84-1.24,17.05-.41,6-.72,10.7-1.83,22.26a128.75,128.75,0,0,1-2.8,17.81,161.44,161.44,0,0,0-3.38,21.85c-.9,9.29-1.69,13.74-2.55,18.47-.93,5.21-1.86,10.6-2.9,21.26a73.56,73.56,0,0,0,1.55,25.51,41.35,41.35,0,0,1,.93,15c-.9,9.56-1.59,14.19-2.28,19.05-.76,5.11-1.52,10.36-2.52,20.78a234.61,234.61,0,0,1-3.45,25.44c-.62,3.35-1.35,7.39-2.31,13-3.14,18.64-3.28,19.3-7.35,36.07l-.79,3.31c-2.38,9.87-3.69,14.81-5,19.71-1.35,5.11-2.69,10.18-5.14,20.4a129.48,129.48,0,0,1-5.49,17.85,170.31,170.31,0,0,0-6.7,21.82c-2.52,10.42-3.59,15.77-4.59,21s-1.93,9.8-4.28,19.5a135.9,135.9,0,0,1-5.42,17.95,169.34,169.34,0,0,0-6.59,21.71c-2.59,10.7-3.49,16.22-4.38,21.57-.79,4.94-1.59,9.63-3.9,19.23-4.66,19.26-4.76,19.61-10,38.14-3.8,8.87-9.53,16.15-19,24.23l-2.55,2.21c-8.8,7.52-16.4,14-24.85,16.05-12.81,3-24.2,3.35-33.86,1a119.31,119.31,0,0,1-16.91-5.35,157.23,157.23,0,0,0-21.06-6.63,138.3,138.3,0,0,0-22-3.8,106.25,106.25,0,0,1-14.67-2.38c-15.39-5.9-33.07-10.49-41.08-25.27a12.5,12.5,0,0,0-1.21-1.79c-.55-1.35-1.1-2.69-1.48-4a114,114,0,0,1-5.21-30C1841.24,1089.73,1843.28,1080,1847.25,1069.81Zm96.17,1423.79c1.83,6.18,3.52,12,4.18,17.5-.48,1.28-3.35,3.87-6.63,4.45a160,160,0,0,0-22.37,5.35,127,127,0,0,1-18.19,4.38,113,113,0,0,1-18.4,1.93,149.42,149.42,0,0,0-23.09,2.45,4.4,4.4,0,0,1-.59.07,8.87,8.87,0,0,1-1-3c-1.73-8.25-4.9-15.67-7.84-22.3l92.44-16.22C1942.38,2490,1942.9,2491.84,1943.41,2493.6Zm-14.77,97.65a72.64,72.64,0,0,1,5.21,9.15,10.57,10.57,0,0,0,.07,4.28c2.07,10.11-.28,21.71-10,27a16.62,16.62,0,0,1-4.87,1.76,20.51,20.51,0,0,1-6.94-.28c-4.76-1.48-8.53-5.59-9.67-11.56a6.69,6.69,0,0,0-.21-.79l-1.86-10.94c1-9.15,4.18-19.05,13.63-21.57C1919.25,2586.9,1924.15,2588.42,1928.64,2591.25Zm-2.62-36.52.38-.1,0,.24C1926.29,2554.8,1926.16,2554.8,1926,2554.73ZM1608.07,675.07a38.79,38.79,0,0,1-14,14c-7.73,4.45-13.81,6.52-19.16,6.52a41.05,41.05,0,0,1-19.88-5.21c-5.25-3-9.49-9.56-12.94-15.57s-5.38-11.15-5.94-16.05a13.25,13.25,0,0,0,.31-2.87,15.51,15.51,0,0,0-.28-2.87,38.68,38.68,0,0,1,5.11-16.53,39.35,39.35,0,0,1,14.12-14.43c7.28-4.21,13.84-6.35,19.5-6.35a41.31,41.31,0,0,1,19.88,5.7c4.9,2.86,8.91,9.32,12.63,15.74,3.94,6.83,5.8,12.81,5.8,18.74A37.91,37.91,0,0,1,1608.07,675.07Zm-107.8-90.75c21.71-6.18,40.35-7.52,56.19-5.9,3.07.83,7.63,2.17,8.28,3.76,1.42,3.49-4.21,7-8.7,9.32a80.92,80.92,0,0,0-14.53,6.7,66.64,66.64,0,0,0-24.2,24.47,69.47,69.47,0,0,0-4.59,9.73c-2.55,3.59-5.66,6.59-9.66,7.7-9,2.42-12.94-7.77-16.19-14.29a9.66,9.66,0,0,0-2.42-3.18s0-.1-.07-.14a49,49,0,0,0-13.15-14.43C1465.34,599.68,1486.26,589.95,1500.28,584.32Zm161.09,60.27c.21-1,.41-2.11.59-3.14,2-3.69,5.21-7.28,8.94-5.35,1.9,1,2.52,3.87,3.38,5.76a36.77,36.77,0,0,1,.45,18.81,33,33,0,0,1-6.66,12.88,13.64,13.64,0,0,1-5.28,2.66c-6.7,1.45-5.38-5.14-4.52-9.66a11.57,11.57,0,0,0,0-3.94c0-.45.14-.86.17-1.31.21-1.66.41-3.31.72-5.11C1659.75,652.63,1660.54,648.73,1661.37,644.59ZM1338.7,681.14c-6.83-5.25-12.32-11.94-14.53-20.47-2.11-8.22-.86-17.5,3.31-26.75,1.69-2,3.66-3.62,5.9-3.76A6.69,6.69,0,0,1,1338,632c.55,3,1.14,5.87,1.69,8.56.83,4,1.62,7.77,2.14,11.15.1.83.24,1.69.31,2.49l.31,2.8.69,6.49c.41,3.35.93,6.7,1.42,10C1343.81,677.73,1342.12,681.28,1338.7,681.14Zm53.23-45.22a42.18,42.18,0,0,1,14.57-14.81c3.18-1.83,8.49-2.07,14.32-2.07.93,0,1.86,0,2.8,0h3a35.36,35.36,0,0,1,18.43,4.83c6.83,3.94,12.7,7.59,15.5,12.39,2.59,4.49,3.83,10.91,3.83,19.61a36.61,36.61,0,0,1-5.25,18.74c-3.42,6-7.52,12.56-12.74,15.57a40.89,40.89,0,0,1-19.78,5.25,40.16,40.16,0,0,1-19.71-5.42c-6.42-3.73-11.87-8.91-14.91-14.19-2.76-4.76-3.14-12.39-3.14-20S1389.2,640.65,1391.92,635.93Zm14.81,133.86a36.54,36.54,0,0,1-2.45-3.9,31.29,31.29,0,0,1-1.86-3.73,83.81,83.81,0,0,1-3.24-9.6c-2-7.18-4-15.95-7.08-24.61-.17-.48-.28-1-.45-1.52.07-3.8,1.21-7,5.94-7.42,1.9-.17,3.83-.24,5.76-.28a66.25,66.25,0,0,0,23.23,4.35,67.87,67.87,0,0,0,33.62-9c10.56-6.11,17.19-15.91,22.82-25.61.66-1.17,1.31-2.38,1.9-3.56,6-8.7,15.5-20,24.92-10,1.28,1.35,2.42,2.76,3.52,4.18a87.51,87.51,0,0,0,4.76,9.53c5.32,9.15,12.18,19.33,23,25.61a68.39,68.39,0,0,0,33.72,8.94,54.9,54.9,0,0,0,18.78-3.49c5-1.21,10.18-2,11.32-.1,1.45,2.35.28,7.11.1,9.53,0,.35,0,.69-.07,1a5.49,5.49,0,0,0-.24.69c-3.11,8.46-5.38,16.78-7.77,23.78a77.7,77.7,0,0,1-3.73,9.42c-1,2.14-3.62,6.52-5.49,9.94-4,7.11-7.73,13.88-11.7,19.4-3.45,4.83-9.39,11.11-14.53,16.43a127.5,127.5,0,0,1-16.15,14.22c-4.59,3.24-10.18,5.56-17.22,7.59-3.56,1-7.46,2-12.15,3.42-1.21.38-2.45.76-3.8,1.28l-2.69,1c-1.59.55-3.18,1.1-4.73,1.52-6.18,1.76-11.56,2.07-15.81,1.1-.52-.14-1.07-.28-1.59-.45s-.86-.28-2-.72l-5.59-2.14c-3.62-1.42-7-2.83-10.29-4.38s-6.42-3.18-9.42-5c-1.48-.86-2.93-1.79-4.38-2.76-.72-.45-1.38-1-2.11-1.45s-1-.83-1.62-1.24a39.14,39.14,0,0,1-4.14-3.94,17.68,17.68,0,0,0-4.07-4.69c-6.39-7.8-13.7-18.23-22.61-27C1415.29,780.18,1410.32,775,1406.73,769.79Zm5.25,171c.28-.17.55-.38.83-.55,1.62-.62,3.24-1.24,5-1.9a87.13,87.13,0,0,0,8.53-3.83c.79-.41,2.24-1.28,3.21-1.93a34.4,34.4,0,0,0,2.93-2.24,41,41,0,0,0,4.73-4.76,45.36,45.36,0,0,0,6.35-10.25,43.9,43.9,0,0,0,3.49-11.84,82.68,82.68,0,0,0,.66-9.29l.1-5.25c1.59-7.28,4-15.36,11.22-18,3.38-1.24,7.35-1.24,11.43-.86l2.66,1c.72.31,2.35.9,3.76,1.35s2.9.86,4.35,1.21c10.87,2.49,21.44,1.42,30.48-.86a11.61,11.61,0,0,0,2.52-.41c11.08-3.07,31.86-9,37.28,5.9,2.62,7.25,2.14,13.88,5.8,19.19,5.56,17.91,17.29,31.31,32.69,37,5,2.76,10.8,4,11.94,10.18.86,4.87-1,10.42-3.87,15.53a155.45,155.45,0,0,1-13.36,13.74l-3.38,3.21c-5.21,5-12.74,8.63-20.68,12.53-2.28,1.1-4.52,2.21-6.73,3.35-4.07,2.07-7.84,4.38-11.49,6.63-6.18,3.8-12,7.39-17.29,8.42-5.11,1-11.84,0-19-1-4.31-.62-8.77-1.28-13.43-1.62-9.39-.69-19.16-2.9-30.65-7-1.59-.55-3.21-1.1-4.83-1.69-8.91-3.11-17.33-6.08-24.37-11a133.47,133.47,0,0,1-24-21.85c-1.45-1.62-2.83-3.38-4.25-5.21a24,24,0,0,1-1.07-6.73C1403.52,945.24,1407,943.82,1412,940.75Zm-168.2,233.1c1.21-5.94,1.79-11.39,2.31-16.33s1-9.32,1.83-13.08c.21-.93.41-1.83.66-2.66l.35-1.28.48-1.52c.66-2.07,1.35-4.14,2.17-6.28,3.11-8.53,7.35-17.57,11-28.17l9.77-27.55c3-8.84,7.08-19.05,10.29-28.13,1.62-4.52,3.28-8.87,4.94-12.43.41-.86.83-1.69,1.21-2.42a23,23,0,0,1,1.28-2.14c1.07-1.73,2.31-3.49,3.59-5.21a166.36,166.36,0,0,1,17.78-20.16c1.62-1.59,3.31-3.18,5-4.73s3.28-2.9,5-4.35c3.49-2.9,7.18-5.73,11-8.56l11.84-8.56,10.77-7.66c5.45-1.9,10.39-2.11,16.12,1.69q2.38,1.61,4.66,3.31c2.31,3.14,4.66,6,7,8.8a167.85,167.85,0,0,0,30.27,27.44c10.94,7.66,22.54,11.74,32.79,15.29,1.52.55,3,1.07,4.56,1.62,14.53,5.21,27.2,8,39.8,8.94,3.38.24,7,.79,10.84,1.35a126.93,126.93,0,0,0,19.16,1.86,60,60,0,0,0,11.74-1.1c11.25-2.28,20.43-7.9,28.51-12.88,3.21-2,6.28-3.83,9.15-5.32,2-1,4.11-2,6.18-3.07,9.53-4.63,20.3-9.91,29.37-18.6l3.21-3c8.6-8.11,18.29-17.29,24.82-29.34a82.84,82.84,0,0,0,4.9-11c2-4.11,4.35-8.08,8-10.46a18.64,18.64,0,0,1,7.18-2.55c2.17.21,4.35.38,6.45.52,6.66.52,12.94,1,18.19,2.42,5.7,1.55,11.53,4.38,17.71,7.39a147.12,147.12,0,0,0,19.68,8.35c5.11,1.66,10.22,3.14,15.29,4.66,8.15,2.38,15.84,4.66,23.16,7.35,5.28,1.93,10.56,3.69,15.81,5.49,7.84,2.62,15.26,5.14,22.19,8,11.87,4.87,23.26,10.11,34.31,15.15l2.59,1.21c1.21.52,2.38,1.14,3.56,1.73,3.28,3,6.25,6.32,5.87,11a26.45,26.45,0,0,1-.79,4.52,103.25,103.25,0,0,0-22.26,34c-5.66,14.53-8.42,28.37-8.22,41.15a137.65,137.65,0,0,0,3.69,28.17,16.93,16.93,0,0,1-.69,3.24c-1.14,3.45-4.28,5.07-7.8,5.94-5.07-1.07-8.7-1.66-12.18-2.17a173.64,173.64,0,0,1-18-3.59l-3-.76c-5.14-2.55-10.63-4.42-16.05-6.94-11.77-5.42-11.49-16.53-16.88-26.48a13.79,13.79,0,0,0-27.2,3.56c.38,18.26,2.73,35.76,3.31,52.19.31,8.42.55,17.29,1.28,26.54.17,2.28.38,4.63.66,7l.86,6.49,1.76,13,3.52,25.92,3.14,25.82c1.14,8.87,2.69,18.16,4.45,26.82l5.18,25.44,1.28,6.63c.48,2.31,1,4.59,1.55,6.8,1.07,4.49,2.21,8.8,3.31,13,.79,3,1.52,5.9,2.24,8.8a94,94,0,0,1,.48,13.19c-.59,13.81-10.77,11.74-21.06,8.53a11.13,11.13,0,0,0-2.49-.45l-1.42-.52c-2.55-.79-5.11-1.45-7.66-2.17s-5.18-1.21-7.8-1.69-5.25-.93-7.94-1.21c-1.31-.17-2.69-.28-4.07-.41-.66-.07-1.38-.1-2.11-.14l-2.42-.1a12,12,0,0,0-2.31,23.92l1.42.24,1.14.17c.45.07.93.14,1.45.24,1,.17,2,.35,3,.59,2,.41,4.11,1,6.14,1.52s4.07,1.24,6.07,1.9,4,1.48,6,2.31a97.28,97.28,0,0,1,21.78,12.56,89.51,89.51,0,0,1,17.5,17.33,84.93,84.93,0,0,1,6.94,10.15,39.41,39.41,0,0,1,2.83,5.18c.14.66.24,1.28.38,1.93,2.9,11.7,8,20.37,11.56,27.65a77.72,77.72,0,0,1,4.28,9.77,45.51,45.51,0,0,1,2,9.35c1,7.15,1,15.95,2.45,26.23a81.69,81.69,0,0,0,4,16,138.89,138.89,0,0,0,5.94,13.63c.79,1.66,1.55,3.18,2.31,4.69a122.7,122.7,0,0,0-20.12-4.59c-2.49-.35-4.9-.62-7.35-.83l-6.63-.55-13.22-1.1c-9.22-.66-19.57-.83-30.2,1-9,1.66-17.91,3.59-26.79,5.94-4.45,1.14-8.84,2.38-13.25,3.73-4.14,1.28-9.32,3-13.7,4.83-9,3.62-16.84,7.63-24.27,10.94-3.73,1.62-7.46,3.18-10.36,4.11-3.21,1-6.94,1.9-11,2.76-8.08,1.73-17.71,3.31-28.06,7.42-10.39,4.28-18.33,9.84-25.27,14a96,96,0,0,1-9.6,5.28c-.86.38-1.69.72-2.55,1-54.3,8.7-78.49-39.25-95.1-85.6a10.79,10.79,0,0,0-2.17-3.69c-1-3.49-2.24-7.7-3.83-13.36a227.31,227.31,0,0,0-8-23.82,190.61,190.61,0,0,1-6.9-20.64c-2.55-9-7.32-15.33-14.19-18.78-4-2-10.29-3.73-18.57-1.62-4.49.41-8.91,1.14-13.43,1.1a56.85,56.85,0,0,1-10.32-1c-14.53-4.31-26.61-12.77-30.34-29.44-3.52-15.77-5.28-32-6.52-48.26.07-.52.14-1,.24-1.62.48-3.24.72-6.21.93-8.94q4.87-19.57,11.53-38.52c.31-.69.62-1.38,1-2.11,2.28-5,4.52-10.15,6.7-15.19,0,0,0-.1.07-.14a17.16,17.16,0,0,0,4-9.53c2.9-7,5.73-14.08,8.32-20.61l3-7.35c1.07-2.59,2-4.8,3-6.87s2-4.07,3-6,2.24-3.62,3.73-5.8,3.35-4.83,5-7.63a91.54,91.54,0,0,0,4.52-8.46c2.76-5.83,4.45-10.53,6.59-15.39s4.21-9.53,6.52-14.67,4.38-10.29,6.42-15.39a13.81,13.81,0,0,0-25.23-11.18v0q-3.52,7.2-7.11,14.12c-2.42,4.63-5.07,9.63-7.56,14.64s-4.9,10.29-7,14.15a74,74,0,0,1-7.56,11.53c-1.66,2.21-3.59,4.9-5.35,7.66-1.28,2-2.42,4.11-3.52,6.18-1.9,1.1-3.49.48-6.66-.45a32,32,0,0,1-5.73-2.42c-5.52-7.66-12-15.39-21-21.23-14.29-9.32-28.41-14.64-41.94-15.77a91.41,91.41,0,0,0-20,.59c-.86-.17-1.73-.35-2.62-.48-2.76-.41-5.83-.38-7.59-2.59a8.13,8.13,0,0,1-1.45-4.11C1242.84,1178,1243.29,1176.06,1243.77,1173.85Zm110,408.17-.28-4.38-.35-4.07-.69-8.25-.79-9.08c.17-12.7.45-25.44,1.07-38.14.69-15.19.48-33,13-42.91.66-.24,1.24-.48,1.93-.72,1.62-.62,3-1.1,4.31-1.55,9.6-1.79,20.12-2.52,27,3.11a58,58,0,0,1,6.28,6.11c.28.76.59,1.52.86,2.24A190.68,190.68,0,0,1,1413,1505c3.21,11.39,4.9,17.05,6.63,22.75,1.66,5.52,3.31,11,6.45,22.19s4.66,16.81,6.18,22.44,3.11,11.36,6.28,22.64a249,249,0,0,0,7.8,23.71c1.59,4.18,3.11,8.22,5.14,14.95a17.93,17.93,0,0,0,.1,3.59,17,17,0,0,0,3,7.49,68.48,68.48,0,0,1,1.52,10.77,103.13,103.13,0,0,0,4,22.54c2,7,3.21,11.39,4.31,15.12a34.71,34.71,0,0,1-1.24,11.46c-4.14,13-20.5,13.46-31.79,14.15-.14,0-.28.07-.41.07a70.41,70.41,0,0,1-15.39-6.66,66.41,66.41,0,0,1-14.88-13.08,121.76,121.76,0,0,0-8.25-13.12c-1.55-2.14-3.28-4.28-5-6.35-.9-1-1.79-2-2.73-3a9.61,9.61,0,0,0-2.83-3.87c-18.23-15.39-29.51-35.9-31.86-59.37.24-2.76.86-5.14,2.14-10.46a76.71,76.71,0,0,0,1.62-10.67A85.55,85.55,0,0,0,1353.78,1582Zm-103.62,111.22a177.72,177.72,0,0,0-5.28,17.22c-4.8,12.22-6.14,25.4-9.6,38.52-5.56,21.09-21,25.72-36.45,35.14l-3.38.9a9.88,9.88,0,0,0-2.14.45c-1.24.35-2.52.76-3.87,1.17l-5.76,1.59c-.69.17-1.38.35-2.11.55-5.28,1.17-10.73,1.55-15.53-.48-5.7-2.42-8.59-8-10.73-13.6a136.8,136.8,0,0,0-5.21-22.85,227.1,227.1,0,0,0-8.42-23.13,180.89,180.89,0,0,1-7.28-19.92c-3.59-11.56-5.87-17.29-8.08-22.85-2.07-5.14-4-10-7.18-20.3-3.42-11-5.14-16.46-6.9-21.92-1.66-5.18-3.31-10.39-6.39-20.3a10.44,10.44,0,0,0-.45-3.45c-3.69-12.22-8.73-27,.93-37.69,3.87-4.31,8.25-7.63,12.25-11.39.52-.28,1-.59,1.48-.86a121.21,121.21,0,0,1,21.5-10.36c12.5-4.8,18.74-7.21,25-9.67l7.46-2.93a7.29,7.29,0,0,0,1.21-.17c20-4.69,42.42-8.53,52.81,13.5a211.63,211.63,0,0,1,9,23.4l2.55,10.39,1.69,7.08c.48,2.11.9,4.21,1.21,6.14a86.54,86.54,0,0,1,.93,12.84,101,101,0,0,0,2.24,17.57c.55,2.69,1.24,5.66,2.17,8.73.62,4.69,1.69,9.35,2.62,14.46A85.6,85.6,0,0,1,1250.16,1693.24Zm91.16,117.19a90,90,0,0,1-10.84,2.42,62.64,62.64,0,0,1-10.53.79,38.45,38.45,0,0,1-9.22-1.17,25,25,0,0,1-7.25-3.07c-4-2.59-8.35-7.84-12.6-14.7-1.07-1.69-2.14-3.49-3.21-5.32l-3.14-5.45a89.26,89.26,0,0,1-4.94-10.25,63.88,63.88,0,0,1-3.21-10.15c-.38-1.73-.72-3.42-.93-5.14s-.38-3.45-.48-5.45a106.29,106.29,0,0,1,1.1-23.16c2.42-15.29,8.11-31,15.64-45.46l0-.1a16.88,16.88,0,0,0,1.9-8.63,62.38,62.38,0,0,0-3.9-20.16,64.54,64.54,0,0,0-4.35-8.77,56.72,56.72,0,0,1-2.73-5.25,50,50,0,0,1-3.24-10.63,68.58,68.58,0,0,1-1.52-11.91,122,122,0,0,0-1.31-16.84c-.48-2.93-1.07-5.73-1.69-8.46l-1.73-7.42-7.15-28.86c-1.1-4.66-2.31-9.8-3.62-14.81s-2.8-10.11-4-14.6-2.38-9.08-3.49-13.77c-.17-.79-.31-1.48-.45-2.21a17.06,17.06,0,0,0-1.14-6.49c0-.1-.1-.17-.14-.28-.17-1.17-.38-2.35-.48-3.49-.21-2-.31-4.14-.48-6.8s-.45-5.7-.86-8.59-.9-5.76-1.45-8.53-1.21-5.38-1.9-8.15a100.31,100.31,0,0,0-6.11-16.91,80,80,0,0,1-4.94-11.6c-.59-1.86-1.1-3.9-1.62-6l-1.62-7c-1-4.69-1.93-9.15-2.87-14.12s-2.07-10.15-3.21-15.12-2.38-10.29-4.07-15.71c-.86-2.73-1.83-5.52-2.8-8s-1.79-4.63-2.49-6.59-1.31-3.9-1.86-6-1.1-4.25-1.59-6.25a42.08,42.08,0,0,1-.45-10.32c.17-4.25.72-9.22,1-14.91.14-2.83.17-5.94,0-9.08l-.38-7.42c-.24-4.9-.41-9.56-.41-14,0-2.24,0-4.45.14-6.59l.21-3.18.31-3.38c.52-5,1-9.77,1.55-14.39.17-1.55.41-3.07.62-4.59a75.25,75.25,0,0,1,25.3-42.25c.38-.21.79-.45,1.17-.62a53.93,53.93,0,0,1,27.27-4.83c7.73.62,16.47,4.11,25.92,10.29,6.32,4.11,11.46,11.81,16.91,19.92l1.52,2.24c5.35,10,8.25,18.19,5.14,30-.86,3.31-1.52,6.59-2.11,9.87-1.52,3.18-3.07,6.39-4.56,9.63l-3.49,7.59a51.49,51.49,0,0,0-2.07,5.28,54.74,54.74,0,0,0-1.55,5.59c-1.59,7.25-1.79,13.46-2.21,18.54-.21,2.52-.41,4.76-.72,6.7-.41,2.62-.9,5.87-1.24,8.84a149.4,149.4,0,0,0-.86,18.47c0,3,.24,6.32.45,9l.55,8,.93,16.12c.35,5.52.72,11,1.17,16.5s1,11.36,1.73,17,1.38,10.32,1.86,15.5c.21,2.49.45,5.32.59,7.59,0,.48.07.9.07,1.35a17.31,17.31,0,0,0-1.17,14.64c.1.21.24.41.35.62-.21,1.52-.41,3.18-.59,4.9a98.85,98.85,0,0,0-.38,10c.1,3.24.24,6.28.55,9.39s.66,6.25,1.21,9.53,1.42,6.73,2.28,9.73c1.86,6.11,2.73,8.94,3.35,13.39.31,2.21.52,4.28.72,7l.69,8.22,1.48,16.26.72,8,.31,4,.28,3.73a49.4,49.4,0,0,1,.07,5.94,38,38,0,0,1-.83,5.38c-.45,2-1.24,5-1.93,8.53a72.13,72.13,0,0,0-1.1,10.84c-.1,3.38.14,7.08.31,9.77.17,2.31.28,4.59.28,6.87s-.1,4.52-.24,7.28a95.75,95.75,0,0,0,0,10,78.52,78.52,0,0,0,4.35,20.19,16.76,16.76,0,0,0,7.15,9.15l.07.07c8.08,5,15.67,9.32,22.23,13.84a86.11,86.11,0,0,1,8.66,6.77c1.24,1.17,2.28,2.28,3.31,3.42,1.14,1.35,2.24,2.73,3.31,4.21a103.33,103.33,0,0,1,11.11,20.23c.83,1.86,1.62,3.8,2.42,5.76s1.69,4.21,2.17,5.59a50.55,50.55,0,0,1,2.42,9.84,73.53,73.53,0,0,1-.45,21.75c-1.07,7.42-3,12.91-6.39,17.78a39.19,39.19,0,0,1-6.28,7c-1.21,1.1-2.59,2.21-4.21,3.45s-3.07,2.28-4.63,3.35A69.12,69.12,0,0,1,1341.32,1810.43ZM1407,2447.48c-.07-1.59-.1-3.14-.21-4.66l-.48-6.8c-.21-2.38-.41-4.8-.76-7.28a105.57,105.57,0,0,0-3-14.91,85,85,0,0,1-2.49-10.67c-.52-3.49-.83-7.11-1.14-11.46-.31-4.18-.59-8.25-.76-12.39s-.35-8.66-.62-13.15l-.93-12.91a76.22,76.22,0,0,1,0-10.49c.21-3.18,1-8,1.21-13.36a119.34,119.34,0,0,0-.35-15,110,110,0,0,0-2.24-15.19c-.59-2.62-1.35-5.21-2-7.39s-1.21-3.94-1.62-5.52a60.82,60.82,0,0,1-1.66-10.08l-1.07-12.56-2.14-25.68a89.69,89.69,0,0,1-.55-11,53.46,53.46,0,0,1,1.35-10.08,82,82,0,0,0,1.55-16.05c0-2.66-.17-5.21-.35-7.73l-.55-6.52-2.45-25.75c-.72-8.11-1.31-17.47-2.76-26.68-.72-4.59-1.35-8.32-1.79-12.22s-.79-8-1.14-12.12c-.69-8.35-.76-15.77-1.1-25.27-.21-4.59-.55-9-.9-13.46s-.86-9.29-1.62-14.12-1.76-9.22-2.35-12.81-1-7.49-1.38-11.46-.66-8.18-.79-12.08-.17-7.8-.24-12.46-.28-9.35-.62-13.84c-.28-4.31-.72-9.39-1.55-14.46a120.7,120.7,0,0,0-3.52-14.39,61.61,61.61,0,0,1-2.11-10.08,83.52,83.52,0,0,1-.76-10.56,44.84,44.84,0,0,1,1.1-9.49,83.74,83.74,0,0,0,2-15.71,107.26,107.26,0,0,0-.9-15.5,82.26,82.26,0,0,0-3.56-15.81c-1.76-5.07-2.76-7.59-3.38-10.6-.1-.45-.17-.93-.28-1.42a9.92,9.92,0,0,0,.31-3.73c-1.42-14.08,2.69-26.65,11.53-36.69a112.76,112.76,0,0,0,10.32-6.11c2.17-1.48,4.28-3,6.28-4.56s4.07-3.21,6.21-5.11a74.54,74.54,0,0,0,11.63-13,70.67,70.67,0,0,0,10.6-24.13c2.76-6.39,6.11-12.53,11.11-17.4a54.53,54.53,0,0,1,14.57-9.63l4.76-1.24c9.77-2.59,14.67-3.83,19.57-5.11l19.64-5.11a27.51,27.51,0,0,0,17.16-12.94c4.11-7.18,5-16.15,2.42-25.23-1-3.69-1.9-6.66-2.59-9.18-1.48-17.16-1.45-36.21,11-48.67,6.28-6.25,14.88-9.25,23.68-12.08,4-.62,8.18-1.35,12.6-2.38a81,81,0,0,0,15.46-5.25,114.38,114.38,0,0,0,13.25-7.21c7.9-4.87,14.43-9.15,20.19-11.46s13.39-3.83,22.3-5.66c4-.83,8.18-1.79,12.63-3.14,15.91-2.66,31.45-9.56,47.53-7.77a54.07,54.07,0,0,1,36.35,20.09c3.94,9.56,7.84,19.12,11.67,28.79a176.53,176.53,0,0,1,5.73,18.33c1.86,6.73,3.76,13.7,6.46,20.71a207.7,207.7,0,0,0,9.15,19.71,178.29,178.29,0,0,1,8,17.4,149.07,149.07,0,0,1,4.9,18.19,193.55,193.55,0,0,0,5.8,21.33c2.87,8,7.15,15,10.91,21.3,3.31,5.42,6.42,10.53,8.08,15.33a136.85,136.85,0,0,1,4.21,18.09,170.32,170.32,0,0,0,5.18,21.85c2,6.11,3.52,12.5,5.18,19.3,1.59,6.56,3.21,13.32,5.35,20.16s4.69,13.32,7.18,19.61c2.55,6.49,5,12.63,6.8,18.78,1.52,5,3,10,4.59,15,2.42,7.87,4.94,16,7.21,24,2.49,8.66,4.83,17.36,7.18,26.06,1.17,4.45,2.38,8.87,3.59,13.32,1.86,6.83,4.14,13.39,6.32,19.74,2.28,6.66,4.45,12.94,6.08,19.23,1.76,6.7,3.18,13.46,4.69,20.68,1.31,6.25,2.66,12.7,4.28,19.16a202.91,202.91,0,0,0,6.63,20.75,166.32,166.32,0,0,1,5.87,18.29c1.62,6.83,2.9,13.74,4.31,21.06,1.17,6.21,2.38,12.6,3.8,19,1.35,6,2.11,12.46,2.93,19.23s1.69,14,3.21,21.23c1.28,6.14,2,12.6,2.83,19.47s1.62,13.84,3,21a143.12,143.12,0,0,0,6.63,21.85c2.21,6.14,4.31,12,5.32,17.43,1.21,6.45,2.59,12.84,3.9,19,1.59,7.25,3.07,14.12,4.28,21.06.83,4.94.59,10.91.28,17.19-.31,7.32-.69,15.64.66,24.09,1.1,6.8,2.52,13.46,3.9,19.92,1.48,7,2.86,13.57,3.87,20.19,1.21,8.11,3.62,15.39,6,22.47,2,6.14,4,11.94,4.69,17.29s.59,11.6.41,18.09c-.1,4.14-.21,8.39-.1,12.74l-96.24,16.88c-.48-2.73-.93-5.52-1.38-8.35-1.14-7.15-2.35-14.53-4.07-21.92-1.38-5.94-2.38-12-3.49-18.36-1.17-7.15-2.45-14.53-4.25-21.88-1.38-5.59-2.66-11.15-3.94-16.71-1.76-7.59-3.56-15.46-5.56-23.16s-4.31-15.12-6.56-22.26c-1.83-5.9-3.56-11.46-5.07-17.05s-3-11.22-4.42-16.81c-1.9-7.49-3.9-15.22-6.07-22.82-1.62-5.63-3.14-11.25-4.66-16.84-2-7.46-4.07-15.15-6.35-22.64-2.35-7.7-5.11-14.91-7.8-21.92-2.24-5.8-4.35-11.29-6.11-16.71-2.76-8.59-5.66-17-8.49-25.13-1.62-4.59-3.21-9.15-4.73-13.7-2.62-7.66-5.59-14.88-8.46-21.88-2.35-5.66-4.56-11-6.46-16.33-2.73-7.7-5.83-15-8.8-22-2.31-5.56-4.52-10.77-6.49-16a147.42,147.42,0,0,1-5-17.5,164,164,0,0,0-6.52-22.06c-3.11-7.73-6.73-14.74-10.22-21.54-2.83-5.42-5.45-10.53-7.59-15.53-2.35-5.63-4.52-11.49-6.59-17.19-2.55-6.94-5.21-14.15-8.32-21.09-2.49-5.52-4.76-11.25-7-16.78-2.83-7-5.73-14.22-9-21.12-4.94-10.39-9.91-20.12-14.7-29.55l-3.73-7.32a197.3,197.3,0,0,0-13.12-21.37c-3.24-4.8-6.35-9.35-8.7-13.7-2.62-4.83-5.11-9.56-7.52-14.19-4-7.77-7.87-15.08-12-22.13-6.83-11.7-13.5-22.06-19.33-31.2l-2.49-3.87c-3.87-6.08-6.59-12.46-9.25-18.64-1.38-3.24-2.76-6.42-4.25-9.46-4.73-14.67-8.91-29.48-12.36-44.56a9.44,9.44,0,0,0-1.21-3,96.59,96.59,0,0,1-.72-10.77v-.21a12.1,12.1,0,0,0-24.16-.55,122.52,122.52,0,0,0-.24,14.32c.1,2.49.35,5,.62,7.28l.69,6.14a78.59,78.59,0,0,1,.21,11.08c-.17,3.8-.52,8.08-.93,11.94s-1,7.63-1.69,11.94-1.31,9.18-1.69,13.77-.66,9-.76,13.91a104.31,104.31,0,0,0,.79,15c.66,5,1.17,8.22,1.28,11.7a102.51,102.51,0,0,1-.17,11.18c-.28,4.14-.52,8.15-.93,12.12l-1.42,12.7c-.48,4.63-.79,9.22-1,13.7l-.66,12.91-1.24,25.78c-.38,8.56-.72,17.54-.79,26.37l-.14,12.6-.17,6.28-.14,3.14-.14,2.83a65.62,65.62,0,0,1-1.28,10.18c-.62,3.07-2.07,7.63-3,13a110.48,110.48,0,0,0-1.62,15.22c-.17,4.73-.24,9.35-.1,14.29s.72,9.94,1,13.63a110.42,110.42,0,0,1,.35,11.25c-.07,3.8-.24,8.15-.41,12.36l-.62,12.63c-.52,8.56-.86,17.81-1.17,25.92-.21,4.11-.45,8-.83,12s-.9,8.56-1.24,13.22-.52,9.15-.66,13.67-.17,9.35.1,14.29.76,9.6,1,13.19.31,7.39.24,11.36l-.14,6.39c-.07,2.31-.07,4.63-.07,7,0,4.69.35,9.73.62,13.81a214.47,214.47,0,0,1,0,24c-.14,4.21-.35,8.32-.59,12.53l-.69,13.12c-.38,8.94-.52,17.36-1,25.65s-1,17.47-1.21,26.1c-.14,4.31-.28,8.32-.52,12.36s-.62,7.87-1,12.43-.66,9.18-.86,13.63l-.24,6.52c-.07,1.93-.17,3.83-.31,5.66a94.14,94.14,0,0,1-1.55,10.91,133.61,133.61,0,0,0-2.17,14.39c-.45,5-.66,9.46-.66,14.64a83.45,83.45,0,0,0,1.52,16c.48,2.59,1.07,5,1.48,6.83s.72,3.35.93,4.87a61.67,61.67,0,0,1,.41,10c-.1,4.11-.28,8.35-.48,12.46l-.45,7.46a21.21,21.21,0,0,1-4.52,8.15c-3.87,4.14-9.8,5.59-15.53,6.39h-59.44c-6.77-.52-13.46-2.11-18.12-7C1409.94,2456.11,1408.15,2451.9,1407,2447.48Zm57,73.94c-8.18,0-18.19.07-27.1.93-.76,0-1.52.1-2.24.17-1.14-.14-2.28-.24-3.49-.28-8.08-.41-13.25-1-16.12-8l-.24-2.11c-.28-2.49-.62-5-1.07-7.56-.17-.86-.35-1.73-.55-2.59.38-2.24,1.48-4,4.49-5.18,2.62-1.07,5.28-2,8-2.87h64.89c3.94.31,8.28.93,10.7,4.07,2.21,2.83,2.69,6.77,2.73,10.6-.14,1.66-.28,3.28-.35,4.87a12.83,12.83,0,0,1-3.28,4.66,13.77,13.77,0,0,1-5.87,2.76l-4.87.07C1480.5,2521.08,1472.39,2521.42,1464,2521.42Zm12.84,90.19,0,13.36a32.94,32.94,0,0,1-5.28,7.21c-4.07,2.42-9,4.49-14,4.59a22.38,22.38,0,0,1-7.42-1.38,26.73,26.73,0,0,1-8.25-8.32l.07-20.75c2.38-9.32,7.11-19.4,17.5-19.64,8-.17,12.53,6.63,15.53,13.95.1.79.17,1.55.28,2.28C1475.6,2606,1476.15,2608.82,1476.8,2611.62Zm119.91,109.87c-1.69,3.49-6.45,4.07-10.67,4.11-1.73-.35-3.49-.62-5.21-.83-3.28-.45-6.42-.62-9.46-.76s-5.87-.1-8.73,0-5.87.14-8.87.38-6,.55-8.66.9-4.83.59-7,.76c-4.42.35-8.94.38-14,.35s-10-.14-15.08-.35-10.7-.48-16.12-.55l-8.08-.07c-3,0-6,0-9.18.28a113.38,113.38,0,0,0-17.71,2.83,57.4,57.4,0,0,1-6,.93c-2,.21-4.07.31-6.32.35a103.33,103.33,0,0,1-13.29-.52c-2.07-.21-4.14-.55-6.77-1-.55-.07-1.14-.17-1.76-.28a63.75,63.75,0,0,0-8.63-2.42c-4-.86-8.39-1.48-10.32-5.63-1.17-2.55-1.17-5.87-1-9.11a132.52,132.52,0,0,1,4.11-13.67,126.59,126.59,0,0,1,5.28-12.6,37.07,37.07,0,0,1,2.93-5c.17-.24.38-.45.55-.69,4.52-6.63,10.87-13.25,19.57-11.11,5,1.28,9,2.8,13.46,3.07a58,58,0,0,0,7.42.52h1a61.69,61.69,0,0,0,26.58-6.94c5.35-1.17,10.87-1.35,16.12.48,3,1.07,8.18,3.21,9,6.77.72,3.28-4.11,10.53-5.42,13.57a1.1,1.1,0,0,0-.1.31c-.48.45-1,.9-1.45,1.38a12.08,12.08,0,0,0,15.91,18.12l.28-.21a70,70,0,0,1,23.23-11.74c.28-.1.59-.14.86-.24a16.92,16.92,0,0,0,2.28.21,17.21,17.21,0,0,0,8-2l1.17-.1a37.65,37.65,0,0,1,11,1.17,53,53,0,0,1,21.06,11.32,59.84,59.84,0,0,1,10,10.91C1597.48,2716.83,1597.75,2719.35,1596.72,2721.49Zm253.95-63.65c-1.35,2.21-2.9,4.8-4.87,7.8a177.33,177.33,0,0,0-15.67,30.82c-.1.21-.24.41-.35.66-3.31,8.49-7,18.29-14.57,24-7.39,5.56-17.43,7-26.34,8.66-5.11,0-10.22.07-15.36.07-14.84,0-30,.07-44.87.38s-29.27.41-44.22.45c-4,0-8,.07-12,.17-7.35-1.35-14.91-2.17-21.75-5.21-9.6-4.25-16.12-11.87-20.54-21.23a10.36,10.36,0,0,0-2.31-3.18,90.5,90.5,0,0,0-21.26-23,84.23,84.23,0,0,0-28.75-14.32c-4.76-2.35-9.87-3.62-15.57-4.8a60.33,60.33,0,0,1-20.75-8.22l-18.36-14.19a67.47,67.47,0,0,1-11.81-28.48l.1-38.94a29.75,29.75,0,0,1,2-5.73c3.24-6.7,8.66-12,13.7-17.36a10.3,10.3,0,0,0,2.49-4.21,40.27,40.27,0,0,0,7.49-16.78,43.24,43.24,0,0,0,.69-5.11l.24-3.8c.07-1.86.21-3.66.38-5.35a66.77,66.77,0,0,1,2-10.15,100.72,100.72,0,0,0,3-15c.62-5.11.76-10.36.9-14.26.17-4.21.38-8.32.62-12.46l.83-13c.24-4.49.41-8.84.59-13.32a95,95,0,0,0-.72-15.71c-.35-2.76-.9-5.42-1.38-7.8s-1-4.14-1.28-5.76a50.3,50.3,0,0,1-.83-9.63c0-3.45.21-7.59.55-11.15a93.58,93.58,0,0,1,1.73-11,133.09,133.09,0,0,0,2.14-14.64c.21-2.45.35-4.87.41-7.21l.28-6.35c.17-4.14.41-8,.79-12.12s.86-8.66,1.14-13.25.48-9.11.62-13.43c.28-8.53.76-16.5,1.28-25.4s.69-17.67,1.1-25.92l.69-12.63c.28-4.38.48-8.84.66-13.22s.35-8.77.38-13.5-.14-9.6-.41-14.08a203.29,203.29,0,0,1-.31-24.37c.1-4.63,0-9.53-.31-14.39s-.83-8.91-1-12.53-.17-7.49,0-11.49.31-8.18.59-12.12.72-7.84,1.17-12.46.76-9.25.93-13.77c.28-9,.48-17,.93-25.61l.55-13.12c.14-4.38.31-8.63.35-13.43s-.14-9.73-.59-14.53-.86-8.39-1-12.08-.14-7.63,0-11.49a72.88,72.88,0,0,1,1-10.39c.48-3.07,1.62-6.8,2.76-12.12a102.22,102.22,0,0,0,1.86-15.39l.17-3.62.07-3.28.14-6.63c.07-4.42.07-8.94,0-13.19-.1-8.39.07-16.6.28-25.23l.76-25.75.28-12.84c.07-4.14.24-8.11.52-12.08l1-11.67a18,18,0,0,1,2.42-3.35c5.38-5.73,9.49-3,13.53,1,3.24,5.7,6.49,11.87,9.91,18.4,2.49,4.76,5,9.66,7.77,14.67,3.18,5.87,6.9,11.32,10.49,16.64a160.43,160.43,0,0,1,10.87,17.57l3.76,7.39c4.69,9.22,9.56,18.74,14.26,28.68,2.87,6,5.45,12.43,8.22,19.23,2.35,5.83,4.76,11.84,7.49,17.95,2.62,5.87,5,12.22,7.42,18.92,2.21,6.08,4.52,12.32,7.21,18.71s5.73,12.22,8.7,18a203.16,203.16,0,0,1,8.84,18.47,133.07,133.07,0,0,1,5.07,17.43,178.38,178.38,0,0,0,6.21,21.5c2.21,5.83,4.66,11.63,7,17.19,2.8,6.63,5.66,13.46,8.11,20.26,2.17,6.08,4.63,12,7,17.85,2.8,6.8,5.45,13.19,7.7,19.85,1.55,4.59,3.18,9.25,4.8,13.95,2.76,7.94,5.63,16.12,8.25,24.33,2.07,6.35,4.45,12.53,6.73,18.54,2.59,6.73,5,13.08,7,19.57,2.11,7,4,14,6,21.54,1.55,5.8,3.11,11.63,4.8,17.5,2,7,3.87,14.22,5.8,21.78,1.48,5.76,3,11.56,4.56,17.36,1.69,6.18,3.59,12.29,5.45,18.23,2.11,6.77,4.31,13.77,6.08,20.64,1.9,7.21,3.56,14.53,5.35,22.23,1.31,5.7,2.62,11.46,4,17.19,1.48,6.14,2.59,12.6,3.76,19.43,1.1,6.59,2.24,13.46,3.87,20.4,1.45,6.25,2.52,12.74,3.62,19.61,1,6.59,2.14,13.39,3.66,20.3,1.79,8.11,4.9,15.19,7.94,22.06,2.55,5.83,5,11.36,6,16.43,2.52,12.15,9.25,21.37,18.33,26.34,4,3.07,8.22,5.76,11.84,9.53a39.55,39.55,0,0,1,6.35,8.84l6.28,36.86c-1.9,14.08-8.35,27.44-14.74,40.21A8.8,8.8,0,0,0,1850.66,2657.84Zm258.57,66.52c-1.31,0-2.69,0-4.21,0-10.46,0-15.77.24-20.88.45s-9.7.45-19.4.45a163,163,0,0,0-22.26,1.35l-2.49.31c-7.35-.21-14.57-.31-21.92-.24-7.66,0-15.43.24-23.26.76-7.35.45-14.57,1.28-21.23,1.93-2.66-.21-4.83-.52-7.18-.83a143.1,143.1,0,0,0-22.47-1.55c-9.63,0-14.32-.24-19.3-.48-5.14-.24-10.49-.52-21-.52-8.66,0-13.53-.07-17.91-.14-7.84-.48-16.53-2.55-22-7.73-2.76-2.62-1.69-3-.83-7.18a42.71,42.71,0,0,0,.79-5.59,141.8,141.8,0,0,1,11.08-21c2.83-4.42,4.94-7.94,6.66-10.87,4.11-4.11,8.94-7.11,15.36-7.15,2,0,4,0,5.83,0a56.56,56.56,0,0,0,13.91,1.79,52.51,52.51,0,0,0,10.15-1,56.33,56.33,0,0,0,14.81-5.07,10.44,10.44,0,0,0,2.76-1c14.36-8,25.13-12,40.59-4.21a10.9,10.9,0,0,0,4.38,1.21,140.31,140.31,0,0,0,21.68,4.8c6.21,1,12.12,2,16.95,3.69,5.52,2,11,5.11,16.84,8.46,6.14,3.52,12.53,7.18,19.61,9.73,8.53,3.11,16.5,6.21,23.51,8.94,5.25,2.07,10,3.94,14.26,5.49,9,3.31,14.95,7.35,18.54,12.53a6.64,6.64,0,0,1,.52,3.69C2120.28,2721,2114.83,2723.38,2109.24,2724.35Z"/><path class="cls-9" d="M2158,1568.15a73.35,73.35,0,0,1-6.45-15.77,42.45,42.45,0,0,1-2.07-15.39,77.44,77.44,0,0,0-3.49-25.51,98.25,98.25,0,0,0-9.39-22.33,66.36,66.36,0,0,1-6.49-15.5c-2.76-9.32-3.87-13.95-5-18.81-1.21-5.11-2.49-10.39-5.49-20.61a23.21,23.21,0,0,0-14.12-15.26,24.63,24.63,0,0,0-9.56-2c-8.28-.21-14.26-6.42-19.12-12.67a8,8,0,0,0-5.52-2.9c-7.66-3.35-15.22-1.1-19.4.17l-.79.24a270.76,270.76,0,0,1-28.24,7,305.29,305.29,0,0,0-31.27,7.7,28.71,28.71,0,0,0-12.94,8.22c-5.56,6.11-7.59,14.19-5.42,21.54,3.11,10.39,5,15.57,6.94,20.57,1.76,4.63,3.42,9,6.14,18.16a171,171,0,0,0,7.59,21.12,137.8,137.8,0,0,1,6.25,17.36c2.66,9.08,3.59,13.6,4.56,18.36a212,212,0,0,0,5.28,21.3A121.82,121.82,0,0,1,2014,1581a156.55,156.55,0,0,0,5,22.09,194.43,194.43,0,0,0,7.35,21,151.07,151.07,0,0,1,6.21,17.6,145.53,145.53,0,0,1,4.35,18.12,189.35,189.35,0,0,0,5.18,21.61c2.86,9.73,4.28,14.6,5.7,19.47s2.83,9.87,5.73,19.74c3,10.15,4.76,15.22,6.45,20.16s3.21,9.29,6,18.71a88,88,0,0,0,9.94,22.75,55.23,55.23,0,0,1,6.56,14.95,48.7,48.7,0,0,1,2.35,15.74,81,81,0,0,0,3.76,25c3,10.32,4.94,15.46,6.77,20.43,1.73,4.66,3.35,9.08,6.08,18.33a195.69,195.69,0,0,0,7.21,20.81,173.83,173.83,0,0,1,6.14,17.81c2.93,9.84,4.38,14.74,5.87,19.68s2.9,9.73,5.76,19.43c2.76,9.35,3.87,13.95,5,18.85,1.21,5.11,2.49,10.39,5.52,20.61a186.44,186.44,0,0,1,4.52,18.33,214.45,214.45,0,0,0,5.28,21.33,82.77,82.77,0,0,0,10.36,23,50.18,50.18,0,0,1,6.59,14.57,61.25,61.25,0,0,1,2.83,16.36,90.6,90.6,0,0,0,4.18,24.13,141.28,141.28,0,0,0,8,21.47,103.52,103.52,0,0,1,6.32,16.84,66.9,66.9,0,0,1,3,16.57,98.51,98.51,0,0,0,4.31,23.82c3.11,10.49,5.14,15.67,7.11,20.71a177.9,177.9,0,0,1,6.14,17.91,112.12,112.12,0,0,0,8.84,22,79.32,79.32,0,0,1,6.45,16,128.31,128.31,0,0,1,4.11,17.88,157.45,157.45,0,0,0,5.07,22c2.69,9.15,10.91,17.19,20.68,18.67a35.12,35.12,0,0,0,8.28,1.86c8.28,1,13.08,4.49,19.16,10a11,11,0,0,0,2.07,1.48,21,21,0,0,0,13.25,4.73,21.8,21.8,0,0,0,6.21-.9c14.08-4.14,21-5.76,28.37-7.49,7.53-1.73,15.33-3.52,30.34-8,7.7-2.28,19.16-11.49,13.22-31.62a58.44,58.44,0,0,1-2.76-16.26A91,91,0,0,0,2365,2255a98.87,98.87,0,0,0-9.32-22.33,68,68,0,0,1-6.49-15.57c-3-10.11-4.69-15.19-6.35-20.12s-3.18-9.35-6-18.81c-2.69-9.08-3.62-13.6-4.63-18.4-1.1-5.28-2.21-10.73-5.32-21.19-3-10.18-4.76-15.26-6.45-20.19-1.66-4.76-3.21-9.29-6-18.67s-4-14.15-5.28-19.09-2.62-10.15-5.59-20.23-4.56-15-6.14-19.88-3-9.53-5.87-19.12c-3.11-10.42-5.07-15.57-7-20.57-1.76-4.63-3.42-8.94-6.11-18.09a51.05,51.05,0,0,1-2.52-15.95,86.3,86.3,0,0,0-3.9-24.71,129.39,129.39,0,0,0-8.32-21.64,95.5,95.5,0,0,1-6.39-16.57,111.39,111.39,0,0,1-3.87-17.6,142.39,142.39,0,0,0-4.94-22.33c-3-10.15-4.73-15.22-6.45-20.16-1.62-4.76-3.21-9.29-6-18.71-1.69-5.7-2.83-9.7-3.76-13a14.57,14.57,0,0,0-1.28-6.56c-.48-1.07-.93-2.14-1.42-3.18-1.1-4-2.45-8.77-4.73-16.43a126.38,126.38,0,0,0-8.35-21.68,93.16,93.16,0,0,1-6.35-16.5c-3-10.32-4.94-15.46-6.73-20.4-1.73-4.69-3.31-9.11-6.08-18.36-2.9-9.8-4.35-14.7-5.83-19.61s-2.9-9.73-5.76-19.5a38.08,38.08,0,0,1-1.83-15,71.3,71.3,0,0,0-3.18-26.06,168,168,0,0,0-7.56-21.06,140.93,140.93,0,0,1-6.25-17.4A105.87,105.87,0,0,0,2158,1568.15Zm19.09,298.75.83,2.69c1.45,4.94,2.93,9.87,5.87,19.74,3,10.11,4.63,15.19,6.18,20.12s3.11,9.66,6,19.36a169.29,169.29,0,0,0,7.66,21.23c1.21,3.83,2.59,8.35,4.69,15.5,2.9,9.77,4.14,14.53,5.49,19.61s2.73,10.29,5.73,20.54c2.8,9.39,3.83,14.08,4.94,19,.55,2.45,1.1,5,1.86,8a120.15,120.15,0,0,0,3.59,15.33c3,10.18,4.73,15.33,6.39,20.26s3.21,9.49,6,19.12c2.76,9.35,3.83,14,4.94,18.92.31,1.42.66,2.87,1,4.42.83,4,2,8.84,3.94,15.57,2.83,9.53,4,14.26,5.14,19.23,1.24,5.21,2.52,10.6,5.63,21.06a79,79,0,0,0,11,23.61c.83,1.28,1.59,2.49,2.31,3.73,1.1,2.93,2.31,6.45,3.83,11.53a182,182,0,0,1,4.56,18.54,195.12,195.12,0,0,0,5.32,21.64c1,3.31,1.73,6,2.35,8.35.79,9.56.38,19.12-4.66,24.65-1.14.66-2.17,1.28-3.28,1.86-.72.28-1.52.55-2.52.83-.41.14-.83.35-1.28.48l-1.38.21c-10.49,1.55-17-2-21.33-10.67-.79-3.76-1.86-8.25-3.66-14.32a111.19,111.19,0,0,0-8.84-22,78.94,78.94,0,0,1-6.45-16.05c-3.11-10.49-5.14-15.67-7.11-20.71-1.76-4.56-3.45-8.84-6.14-17.91a66.47,66.47,0,0,1-3-16.6,98.8,98.8,0,0,0-4.35-23.78,142.82,142.82,0,0,0-8-21.47,102.83,102.83,0,0,1-6.32-16.81,59.87,59.87,0,0,1-2.83-16.36,93.8,93.8,0,0,0-4.18-24.13,83.61,83.61,0,0,0-10.36-23,49.74,49.74,0,0,1-6.59-14.57,176.75,176.75,0,0,1-4.52-18.33,214.41,214.41,0,0,0-5.28-21.33c-2.8-9.35-3.9-13.95-5-18.85-1.24-5.11-2.49-10.36-5.52-20.57-2.86-9.77-4.35-14.67-5.8-19.57s-2.93-9.77-5.83-19.57a207.77,207.77,0,0,0-7.18-20.78,166.77,166.77,0,0,1-6.18-17.81c-3.07-10.36-4.94-15.5-6.77-20.47-1.73-4.66-3.35-9.08-6.08-18.29a47.82,47.82,0,0,1-2.35-15.77,83.32,83.32,0,0,0-3.76-25,88.18,88.18,0,0,0-9.94-22.71,54.17,54.17,0,0,1-6.56-14.95c-3-10.15-4.76-15.26-6.45-20.16s-3.21-9.32-6-18.74c-2.86-9.73-4.28-14.6-5.66-19.47s-2.86-9.87-5.76-19.71a161.16,161.16,0,0,1-4.35-18.12,213.65,213.65,0,0,0-12.56-42.59,152.41,152.41,0,0,1-6.18-17.6,121.82,121.82,0,0,1-4.07-17.81,157.42,157.42,0,0,0-5-22.06c-2.66-9.08-3.59-13.6-4.56-18.36a212,212,0,0,0-5.28-21.3,168.74,168.74,0,0,0-7.59-21.12,130.23,130.23,0,0,1-6.25-17.4,1.71,1.71,0,0,1-.14-.45,9.13,9.13,0,0,0-.45-6c-2.93-7.49-2.38-14.6,3.52-20.68a23.18,23.18,0,0,1,10.77-6.14,7.07,7.07,0,0,0,.83-.17,13.35,13.35,0,0,1,11.43,2.66,27.68,27.68,0,0,1,6,7.42,84.63,84.63,0,0,0,9,19.05c.28.41.52.86.79,1.28.55,1.17,1.1,2.31,1.62,3.38,1.21,2.45,2.31,4.76,3.52,7.8.28.83.55,1.69.83,2.62a128,128,0,0,1,4.21,18.29c.62,3.87,1.35,8.11,2.93,14.32a130.82,130.82,0,0,0,3.49,14.19c1.38,4.63,2.49,8.18,3.45,11.18.14.66.31,1.31.48,2,1.24,5.18,2.55,10.56,5.63,21s4.76,15.46,6.45,20.43,3.21,9.6,6.08,19.3c2.83,9.53,3.94,14.26,5.14,19.23s2.45,10.29,5.32,20.09c.48,1.86,1,3.83,1.66,6,.38,1.35.76,2.55,1.1,3.73,1,4,1.66,7,2.31,10,1.1,5.35,2.28,10.87,5.42,21.54a98.53,98.53,0,0,0,5.8,15.22c.76,3,1.31,5.49,1.86,8,1.14,5.28,2.35,10.7,5.45,21.19a89.89,89.89,0,0,0,10.11,23,55.42,55.42,0,0,1,6.66,15.12,73.3,73.3,0,0,1,3.24,17.05,106.77,106.77,0,0,0,4.49,23.75c2.11,7.11,3.76,11.81,5.21,15.67a177.7,177.7,0,0,0,5,20.64A84.79,84.79,0,0,0,2177.06,1866.9Z"/><path class="cls-9" d="M2330.53,1005.16a33.9,33.9,0,0,0,33.55-33.55c0-18.29-15.29-34-33.55-34s-29.79,15.71-29.79,34S2312.27,1005.16,2330.53,1005.16Z"/><path class="cls-9" d="M2056.22,418.4a15.33,15.33,0,0,0,10.53,19,34.36,34.36,0,0,0,8.8,1.1,53.49,53.49,0,0,0,8.49-.66,43.19,43.19,0,0,0,8.25-2.11,27.66,27.66,0,0,0,7.84-4.25,15.21,15.21,0,0,0,5.21-7.42,15.65,15.65,0,0,0-10-19.74,28.53,28.53,0,0,0-8.8-1.31,42.86,42.86,0,0,0-8.46.86,52.62,52.62,0,0,0-8.22,2.24,35.82,35.82,0,0,0-7.9,4.07A15.37,15.37,0,0,0,2056.22,418.4Z"/><path class="cls-9" d="M2023.7,343.91a81.73,81.73,0,0,0,11.08-9.15c3.45-3.28,6.66-6.73,9.73-10.29a124.15,124.15,0,0,0,8.59-11.25,70.74,70.74,0,0,0,6.94-12.63,14.49,14.49,0,0,0-21.16-17.74,68.44,68.44,0,0,0-11.22,9,113.7,113.7,0,0,0-9.56,10.42,131,131,0,0,0-8.46,11.36,81.89,81.89,0,0,0-7.11,12.5,14.6,14.6,0,0,0,1.21,13.84A14.35,14.35,0,0,0,2023.7,343.91Z"/><path class="cls-9" d="M1829.16,367.45c-1.52,1.79-2.93,3.62-4.21,5.45a81.7,81.7,0,0,0-6.21,11c-3.31,7.15-5.42,13.63-7.59,19.16-4.38,11.08-10.91,25.92-11.6,42.73a99.75,99.75,0,0,0,.21,11.7c.24,3.8.72,7.59,1.35,11.36a111.35,111.35,0,0,0,6,22,115.06,115.06,0,0,0,10.18,20.3c.93,1.59,2,3,3,4.52l.1.17,0,0v0l0,0,0,.07,0,0v0a0,0,0,0,1,0,0l.45.72,1.17,2,4.69,8.11c3.07,5.45,6.25,10.87,9.18,16.36s5.8,10.84,8.84,16.74c6.11,11.56,12.32,22.78,18.88,33.93a13,13,0,0,0,23.54-10.77l0-.07c-4.18-12.32-9.08-24.47-13.84-36.35-2.42-5.83-5-12.25-7.84-18.29s-5.73-12-8.87-17.91l-4.8-8.84-1.24-2.24-.66-1.17-.59-.93-.62-1c-.72-1.14-1.52-2.31-2.21-3.45a82.15,82.15,0,0,1-10.94-29.75,76.31,76.31,0,0,1-.79-7.94,71.26,71.26,0,0,1-.07-7.63,57.25,57.25,0,0,1,3-14.46c.86-2.55,1.86-5.21,3-8l3.73-9c2.59-6.49,4.66-12.25,6.87-16.84a38.31,38.31,0,0,1,3.31-5.9c.55-.79,1.14-1.52,1.69-2.17l.9-.93,1.38-1.35a86,86,0,0,1,26.61-17c8.22-3.24,19.3-4.11,31.48-4,11.49-.07,22.3,1.28,31.24,4.87,10.42,4.18,20.3,9.66,27.3,16.29l1.24,1.17.86.93c.55.66,1.1,1.38,1.69,2.17a42,42,0,0,1,3.28,5.94c2.21,4.59,4.25,10.39,6.87,16.95l3.8,9.15c1.21,2.83,2.28,5.52,3.18,8.08a54,54,0,0,1,3.24,14.15c.07,1.07.07,2.35.07,2.87a25.48,25.48,0,0,1-.31,2.8,57.74,57.74,0,0,1-1.73,7.32c-.79,2.66-1.69,5.45-2.73,8.35l-3.28,9.25c-2.31,6.66-4.21,13.29-5.9,19.85l-2,8-.59.93-2.62,4.42c-3.49,5.87-6.59,11.87-9.63,18-1.52,3.07-3,6.18-4.31,9.35s-2.66,6.42-3.83,9.46c-2.38,6.14-4.73,12.77-6.59,18.85L1950.18,585l0,.07a13,13,0,0,0,23.64,10.56c3.28-5.7,6.49-11.7,9.32-17.71s5.42-11.32,8.32-17c1.42-2.87,2.8-5.56,4.21-8.18l4.38-8c3-5.28,6.25-10.53,9.49-15.71l2.45-3.83,1.21-1.86c.21-.28.38-.55.38-.55a20.63,20.63,0,0,0,1.31-2.21c.31-.66.79-1.83.86-2.07l.24-.72.38-1.17L2019,507c1.62-5.94,3.42-11.7,5.38-17.22l3.35-9c1.14-3.21,2.31-6.52,3.42-10a93.35,93.35,0,0,0,2.83-11.49,65,65,0,0,0,.83-6.83,63.57,63.57,0,0,0,0-6.83c-.93-17.26-7.9-31.62-12.12-42.46-2.14-5.49-4.21-11.94-7.49-19.09a78.92,78.92,0,0,0-6.14-11,61,61,0,0,0-4.18-5.52c-.79-.9-1.62-1.76-2.45-2.62s-1.48-1.45-2.21-2.21a106.84,106.84,0,0,0-18.74-13.95,149.27,149.27,0,0,0-19.88-9.77c-15.15-6.08-30.55-7.63-44.8-7.7-13.57.14-28.86.59-44.84,6.83a121.33,121.33,0,0,0-38.25,24.68l-2.07,2Z"/><path class="cls-9" d="M1983.63,636.37a13.17,13.17,0,0,0-9.7-15.91l-.59-.14a78.3,78.3,0,0,1-11.08-3.18L1956,614.9a67.08,67.08,0,0,0-8.63-2.14c-5.9-1.17-11.87-1.21-16.12-1.38l-13.77-.38c-4.73-.14-9.77-.17-14.57,0s-9.91.31-15.19,1a122,122,0,0,0-14.64,2.62c-4.07,1-8.25,1.66-12.77,2.55l-.28.07a13.15,13.15,0,0,0,.28,25.82,91.75,91.75,0,0,0,15.6,1.35c2.66,0,5.18-.1,7.35-.1s4.14,0,6.25,0l26.92,1.1c4.76.21,9.8.24,14.6.14,5.21-.14,8.73-.35,12.22-.24a37.16,37.16,0,0,1,5.28.45l7.59,1a59.79,59.79,0,0,0,17.16-.62A13.16,13.16,0,0,0,1983.63,636.37Z"/><path class="cls-9" d="M1922.22,420.74l1.79,1c4.69,2.52,8.39,4.87,11.08,7.63a31.24,31.24,0,0,1,6.49,9.39,57,57,0,0,1,3.83,12.67,147.27,147.27,0,0,1,1.93,14.91l.24,2.42a13.14,13.14,0,0,0,24.51,5.18,50.81,50.81,0,0,0,6.32-24.51,56,56,0,0,0-5.87-25.72,50,50,0,0,0-18.88-20.78,47.45,47.45,0,0,0-25.72-6.8,13.11,13.11,0,0,0-5.73,24.65Z"/><path class="cls-9" d="M1936.75,659.54q-9.94-.93-19.88-.93a191.86,191.86,0,0,0-19.92.9,117.9,117.9,0,0,0-19.92,3.42,13.43,13.43,0,0,0,0,25.89,121.44,121.44,0,0,0,19.92,3.42c6.63.62,13.25.9,19.92.9s13.25-.35,19.88-1a129,129,0,0,0,19.92-3.35,13.41,13.41,0,0,0,0-25.89A129.17,129.17,0,0,0,1936.75,659.54Z"/><path class="cls-9" d="M1903.06,300a14.17,14.17,0,0,0,27.61,0,126.94,126.94,0,0,0,2.59-17.47c.52-5.83.76-11.67.83-17.47s-.17-11.67-.66-17.5a106.16,106.16,0,0,0-2.76-17.47,14.27,14.27,0,0,0-27.61,0,102.73,102.73,0,0,0-2.8,17.47c-.48,5.83-.72,11.67-.66,17.5s.31,11.63.83,17.47A122,122,0,0,0,1903.06,300Z"/><path class="cls-9" d="M1780.59,313.22a118.17,118.17,0,0,0,8.59,11.25c3.07,3.56,6.28,7,9.7,10.29a84.25,84.25,0,0,0,11.11,9.15,14.36,14.36,0,0,0,21.12-17.74,81.71,81.71,0,0,0-7.08-12.5,138.48,138.48,0,0,0-8.46-11.36,114,114,0,0,0-9.6-10.42,68.44,68.44,0,0,0-11.22-9,14.49,14.49,0,0,0-21.16,17.74A70.87,70.87,0,0,0,1780.59,313.22Z"/><path class="cls-9" d="M1733.55,431.48a27.84,27.84,0,0,0,7.87,4.25,43.51,43.51,0,0,0,8.22,2.11,53.49,53.49,0,0,0,8.49.66,34,34,0,0,0,8.8-1.1,15.36,15.36,0,0,0,4.8-27.2,35.82,35.82,0,0,0-7.9-4.07,53.27,53.27,0,0,0-8.18-2.24,43.4,43.4,0,0,0-8.46-.86,28.74,28.74,0,0,0-8.84,1.31,15.3,15.3,0,0,0-7.42,5.18A15.65,15.65,0,0,0,1733.55,431.48Z"/><path class="cls-9" d="M1476,800.37a48,48,0,0,0,16.36,5.32,57,57,0,0,0,17.47-.17,56.12,56.12,0,0,0,16.53-5.28c1.28-.66,2.52-1.42,3.8-2.11s2.42-1.59,3.59-2.42,2.31-1.79,3.42-2.8,2-2,3.42-3.49a9,9,0,0,0,2.35-4.76,9.13,9.13,0,0,0-7.53-10.46L1528,773a9.94,9.94,0,0,0-2.62.52l-2.93.76-5.8,1.55c-3.8,1-7.59,1.79-11.39,2.49a96.24,96.24,0,0,1-11.46,1.45c-3.9.41-7.87.31-12.22.66l-1.59.14a10.54,10.54,0,0,0-4,19.81Z"/><path class="cls-9" d="M1488.64,750a20.61,20.61,0,0,0,6,2.55,30.42,30.42,0,0,0,6,.9,19.94,19.94,0,0,0,6-.55,15.17,15.17,0,0,0,6-2.9,13.93,13.93,0,0,0,2-2,13.32,13.32,0,0,0-2-18.71,15.55,15.55,0,0,0-6-2.87,19.94,19.94,0,0,0-6-.55,30.4,30.4,0,0,0-6,.9,21.45,21.45,0,0,0-6,2.52A12.45,12.45,0,0,0,1485,733,12.29,12.29,0,0,0,1488.64,750Z"/><path class="cls-9" d="M605.27,768.85c1.1,4.59,2.14,8.94,2.9,13.15.66,3.56,1.21,7.11,1.79,10.7,1.79,11.15,3.62,22.68,7.59,34.1l2,5.87c4.21,12.25,8.56,24.92,15,36.93,7.35,13.77,16.57,26.61,25.44,38.42,6.77,9,14.74,16,22.47,22.78,3.62,3.18,7.08,6.21,10.25,9.29,9.49,9.32,19.85,16.67,29.89,23.78,1.93,1.38,3.87,2.76,5.83,4.14a286.61,286.61,0,0,0,38.45,23.82,108.19,108.19,0,0,1,12.91,8.39c7.66,5.45,16.33,11.63,26.92,15.08,10.39,3.42,21,3.76,30.34,4.07a125.5,125.5,0,0,1,15.57,1.1,140.7,140.7,0,0,1,14.53,3.45c9.11,2.52,19.5,5.35,30.69,5.38h.83c15.88,0,31.2-1.93,44.15-3.83a295.58,295.58,0,0,0,44-9.91c11.91-3.62,22.61-9,32.93-14.12,2.76-1.38,5.49-2.76,8.25-4.07l1.93-.93c12.53-6,25.47-12.25,37.56-20.5a303.89,303.89,0,0,0,35-28.17c8.46-7.87,15-16.67,21.37-25.2,2.35-3.18,4.69-6.35,7.15-9.42,1.69-2.14,3.42-4.25,5.11-6.35,4.66-5.76,9.39-11.67,13.81-17.95a115.27,115.27,0,0,1,25-16.84c4.42-1.35,7.63-2.49,10.77-3.59a169.55,169.55,0,0,1,18.36-5.66,132.42,132.42,0,0,0,22.23-7.56,115.08,115.08,0,0,1,35.1-9,129.54,129.54,0,0,0,23.2-4c10.73-2.76,18.61-11,20.5-21.5,2-11.22-3.11-22.92-13.08-29.86-7.49-5.21-11-7.9-14.77-10.74s-7.84-6-15.95-11.6a46.28,46.28,0,0,1-10.77-9.87,79,79,0,0,0-17.47-15.95c-1.42-1-2.73-1.86-4-2.69a11.16,11.16,0,0,0-1.17-1c-10.42-7-29.69-15.64-30.1-30.2a10.51,10.51,0,0,0-.66-3.38,163.1,163.1,0,0,0-5.35-20.37,140.1,140.1,0,0,1-4-14.19c-3.24-16.15-6.14-29.62-11.25-43.49l-.21-.55c-5-13.53-10.15-27.51-17.54-40.87-6.7-12.08-14.81-22.54-22.68-32.65l-3.24-4.18c-8.77-11.32-18.23-23.26-29.48-34-10-9.53-21.3-20.3-34.28-29.37a294.31,294.31,0,0,0-38.76-23.27c-10-4.94-20.23-7.59-30.1-10.18-4.52-1.17-8.77-2.28-12.91-3.56a117.71,117.71,0,0,1-13.88-5.94c-8.39-4-17.88-8.56-28.82-10.22-16.67-2.55-34-2.83-45.53-2.83-10.53,0-20.26,2.49-28.82,4.69a131.88,131.88,0,0,1-13.81,3.07,114.73,114.73,0,0,1-14.74.79c-8.77.14-18.67.31-28.55,3.24-11,3.28-20.88,8.15-30.44,12.84-3.14,1.55-6.25,3.11-9.35,4.56-13.6,6.32-26.16,14.57-37.24,21.85l-2.8,1.83c-10.8,7.08-22,14.39-32.17,23.44a298.38,298.38,0,0,0-29.93,31.17c-6.87,8.15-11.7,16.88-16.4,25.34-2.17,3.94-4.25,7.66-6.42,11.22s-4.9,7.28-7.7,11.11c-5.56,7.7-11.29,15.64-15.5,25.3s-6.52,19.74-8.7,29.37c-.93,4.25-1.86,8.28-2.93,12.22-1.1,4.14-2.69,8.49-4.35,13.08-3.07,8.46-6.56,18.05-7.8,28.51-1.79,15.15-1.73,30.41-1.42,43.35C600.4,748.28,602.88,758.74,605.27,768.85Zm30.55-71.35c.79-6.52,3.31-13.5,6-20.85,1.83-5.07,3.73-10.29,5.21-15.81,1.28-4.66,2.31-9.25,3.31-13.67,1.9-8.42,3.69-16.36,6.66-23.16,2.73-6.28,7.15-12.39,11.84-18.88,3-4.18,6.11-8.49,9-13.12,2.66-4.28,5-8.56,7.32-12.74,4.07-7.32,7.9-14.22,12.56-19.78a272.2,272.2,0,0,1,26.44-27.61c8.35-7.39,18-13.7,28.2-20.37l2.83-1.86c10.6-7,21.54-14.15,32.86-19.43,3.35-1.55,6.7-3.21,10-4.87,8.66-4.25,16.84-8.28,25.06-10.73,5.28-1.59,12-1.69,19.19-1.79a142.16,142.16,0,0,0,19.19-1.14,170.2,170.2,0,0,0,17.43-3.8c7.25-1.86,14.08-3.62,20.23-3.62,10.46,0,26,.24,40.35,2.42,5.87.9,12.29,4,19.09,7.25a142.51,142.51,0,0,0,18.47,7.73c4.94,1.55,9.8,2.8,14.5,4,8.6,2.24,16.67,4.35,23.58,7.73A259.43,259.43,0,0,1,1049.41,514c10.84,7.56,20.71,16.95,30.24,26s17.71,19.43,26,30.13l3.31,4.25c7.39,9.49,14.36,18.47,19.74,28.17,6.11,11,10.6,23.2,15.33,36.07l.21.59c4.28,11.56,6.87,23.71,9.84,38.38a162.85,162.85,0,0,0,4.87,17.67c2.38,7.59,4.63,14.77,4.94,21.37.72,15.26,6.52,26.79,17.26,34.24a177.8,177.8,0,0,0,17.67,11,134.91,134.91,0,0,1,14.6,9,47.33,47.33,0,0,1,10.8,9.91,79.47,79.47,0,0,0,17.43,15.95l3.83,2.69a8.54,8.54,0,0,0,.66.9c2.83,3.76,5.87,5.18,2.42,8.94a28.31,28.31,0,0,1-7.15,5c-2,.41-4,.9-6.39,1.52a134.28,134.28,0,0,0-22.26,7.56,98.31,98.31,0,0,1-17.22,5.9,203.91,203.91,0,0,0-21.4,6.56,171.25,171.25,0,0,1-18.36,5.63c-7.7,2-20.54,5.28-28.06,18.43-4.94,8.63-11.43,16.64-18.29,25.13-1.79,2.21-3.56,4.38-5.32,6.63-2.66,3.35-5.25,6.8-7.8,10.25-5.7,7.63-11,14.81-17.19,20.54a264.51,264.51,0,0,1-31,24.92c-9.91,6.8-21.12,12.18-33,17.91l-1.93.93c-2.9,1.38-5.76,2.83-8.66,4.28-9.49,4.73-18.47,9.22-27.61,12a265.58,265.58,0,0,1-38.9,8.77C926,993.08,912,994.91,898,994.81c-6.66,0-14-2-21.78-4.14a163.84,163.84,0,0,0-18.12-4.25,154.81,154.81,0,0,0-19.92-1.55c-7.73-.24-15-.48-20.78-2.38-5.56-1.79-11.39-6-17.57-10.36a136.41,136.41,0,0,0-17.33-11,259.68,259.68,0,0,1-34-21.09c-2-1.45-4-2.87-6-4.28-9.35-6.63-18.16-12.88-25.72-20.26-3.83-3.76-7.8-7.25-11.63-10.6-6.7-5.87-13-11.43-17.6-17.57-8-10.7-16.33-22.19-22.61-33.93-5.11-9.56-8.84-20.4-12.77-31.89l-2.07-6c-3-8.56-4.52-18.09-6.14-28.2-.59-3.8-1.21-7.63-1.9-11.43-.93-5.14-2.11-10.15-3.28-15-2.07-8.77-4-17-4.25-24.92C634.33,724.22,634.26,710.48,635.81,697.51Z"/><path class="cls-9" d="M1061.14,2551.18c2.59-1.35,5.18-2.66,7.8-3.94,3.35-1.62,7.11-3.11,11.11-4.66,7.87-3.07,16.81-6.59,24.92-12.39a238.16,238.16,0,0,0,30.34-26.1c7.8-7.94,13.39-16.88,18.85-25.51,1.9-3.07,3.83-6.11,5.83-9.08a230,230,0,0,0,20.4-36.9,233,233,0,0,0,13.29-40c3.28-14,4.49-27.75,5.18-38.21a221.39,221.39,0,0,0-1.07-38.49c-.38-3.69-.38-7.8-.41-12.12-.07-8.18-.1-17.47-2.69-26.79s-7.28-17.47-11.43-24.58c-2.11-3.69-4.14-7.15-5.66-10.46a232.12,232.12,0,0,0-19.12-33.41,228.84,228.84,0,0,0-24.54-29.58c-1.55-1.66-3-3.21-4.49-4.73-4.35-4.59-8.56-9-13.6-13.46a58.64,58.64,0,0,0-4-6.28,237.89,237.89,0,0,0-27.58-30.62c-7.39-7-16-11.32-23.64-15.12a107.67,107.67,0,0,1-11.39-6.21c-3.14-2.07-6.35-4.56-9.73-7.21-6.83-5.38-14.6-11.46-24.16-15.57-9.73-4.18-19.64-6.18-29.24-8.11-3.42-.69-6.83-1.38-10.25-2.17l-1.79-.45c-12.74-3-25.92-6.11-39.7-6.8-2.35-.1-4.69-.24-7-.38-11.46-.69-23.3-1.42-35.41.21-11.67,1.55-22.23,5.21-32.45,8.73-2.8,1-5.59,1.93-8.39,2.87-3.24,1.07-6.56,2-9.91,3-9.11,2.62-18.54,5.32-27.72,10.18-12.43,6.56-23.61,14.95-33.1,22.23-10.73,8.28-21.12,16.5-30.1,26.27a237.44,237.44,0,0,0-24.27,31.83c-5.32,8.28-8.25,17.29-10.8,25.27-1.35,4.18-2.62,8.11-4.14,11.67-4.38,10.36-6.7,20.74-9,30.82-.52,2.28-1,4.56-1.55,6.87-.83,3.38-1.76,6.73-2.76,10.32-2.42,8.53-4.87,17.33-5.52,27.13-.24,3.52-.66,7.11-1.1,10.94-1,8.91-2.07,18.09-1.07,27.89s4.52,18.23,7.63,25.68a100.75,100.75,0,0,1,4.25,11.36,109.32,109.32,0,0,1,2.24,12c1.17,8,2.52,17,6.63,25.78,6.7,14.39,12.53,24.92,18.85,34.14,5.87,8.56,12.91,15.46,19.71,22.13,2.24,2.21,4.45,4.38,6.59,6.59A234,234,0,0,0,783,2479.86c6.49,8.59,13.53,15.08,20.33,21.33,2,1.83,4.07,3.69,6.14,5.7,8.63,8.22,18.5,15.84,32,24.71,3.14,2.11,6.42,4.76,9.87,7.56,6.73,5.49,14.36,11.7,23.92,15.81,12,5.14,25,10.36,38.9,13.63,10.53,2.49,21.19,2.87,30.58,3.21,3.11.1,6.21.21,9.25.38,3.76.24,7.56.38,11.53.38a258.62,258.62,0,0,0,28.2-1.73,234.16,234.16,0,0,0,39-7.49C1043.23,2560.32,1052.34,2555.66,1061.14,2551.18ZM993.9,2477c-.38.24-.76.45-1.14.69-1.31.35-2.62.66-3.94,1-3.83,1-7.8,1.9-11.84,3.07-3,.86-5.9,1.76-8.84,2.69-2.66.83-5.21,1.59-7.8,2.35h-.17a149.24,149.24,0,0,0-15.91.69l-1.76.21c-10.87,1.21-21.16,2.35-31.45,1.73A205.83,205.83,0,0,1,841,2471.3c-4.31-2-8.42-3.69-12.43-5.32a152.25,152.25,0,0,1-16.05-7.35c-2.28-1.59-4.63-3.24-7-5a197.66,197.66,0,0,1-24.75-21.78c-2.35-2.42-4.76-4.83-7.21-7.21-5.9-5.8-11.46-11.25-15.46-17.05-5.18-7.59-10.15-16.57-16-29.2-2-4.25-2.83-10.08-3.76-16.26a134.73,134.73,0,0,0-3.14-16.19,121.87,121.87,0,0,0-5.63-15.39c-2.42-5.8-4.69-11.25-5.14-15.95-.62-6.08.17-13,1-20.4.45-4.07.93-8.28,1.24-12.63.41-6.21,2.28-12.94,4.28-20.05,1.07-3.76,2.17-7.66,3.14-11.77.55-2.42,1.1-4.83,1.66-7.21,2-9,3.9-17.43,7.08-24.92,2.11-4.94,3.66-9.8,5.18-14.53,2.11-6.52,4.11-12.67,7-17.16a201.18,201.18,0,0,1,20.61-27.17c7.18-7.77,15.91-14.67,25.78-22.26,8.35-6.45,18.16-13.77,28.2-19.09,6-3.18,13.32-5.28,21.09-7.53,3.73-1.07,7.46-2.14,11.08-3.31,3-1,6-2,9-3,9-3.14,17.47-6.08,25.72-7.15a85,85,0,0,1,11.63-.69c5.49,0,11.25.35,17.19.69l7.35.41c10.63.55,21.75,3.14,33.52,5.94l1.79.41c3.76.9,7.56,1.66,11.36,2.42,8.22,1.66,15.95,3.21,22.4,6,5.45,2.35,10.84,6.56,16.53,11,3.76,3,7.66,6,12,8.87a138.6,138.6,0,0,0,15,8.28c6,3,11.67,5.83,15.33,9.29a214,214,0,0,1,20.16,21.71,17.42,17.42,0,0,0,3.18,7.9,73.44,73.44,0,0,1,7.18,12.15c0,.07,0,.14.07.21a132.26,132.26,0,0,0,6.39,16.12,113.84,113.84,0,0,0,8.63,13.95,95.39,95.39,0,0,1,7.15,16.53c.69,2.31,1.42,4.69,2.17,7.08,1.28,4.18,2.52,8.25,3.62,12.25.28,2.28.52,4.56.76,6.9s.52,5,.79,7.42c.59,4.9-.48,11-1.66,17.54a149,149,0,0,0-2.24,16.64c-.1,2.14-.21,4.31-.35,6.45-.48,9.56-.93,18.57-3,27.23-.69,3-1.35,6-2,9-.79,3.49-1.55,6.9-2.38,10.22-.9,2.07-1.86,4.14-2.83,6.21-1.28,2.83-2.59,5.66-3.8,8.46-2.24,5.14-4,10.25-5.63,15.15-.31.93-.62,1.83-.93,2.76a161,161,0,0,1-8.77,14.57c-7.08,10.42-14.08,20.47-22.09,28.62-1.79,1.83-3.73,3.66-5.76,5.52-2,1-4.25,2.07-6.52,3.14a100.1,100.1,0,0,0-16.64,9.11,192.71,192.71,0,0,1-28.3,17.22A152.76,152.76,0,0,0,993.9,2477Z"/><path class="cls-9" d="M743,750.73a126.5,126.5,0,0,0,21.88-.55c7.59-.83,14.67-2.55,20.09-3.28a103.54,103.54,0,0,1,17.19-1.1c6,.07,12.5.28,18.36.79s11.6,1.42,18.57,2.42a193.26,193.26,0,0,0,21.4,1.93c1.76.1,3.52.14,5.25.17l5,0c3.14,0,6.25.1,9.29.24,6.18.28,11.81.83,18.29,1.69s14.08,1.59,21.12,1.79,13.95.24,20.78.07,13.95-.55,20.78-1.17,12.84-1.21,19.09-1.59c3.14-.17,6.28-.31,9.46-.41l10-.31a154.34,154.34,0,0,0,21.82-2.38c7.42-1.45,13.25-3.14,18.92-4a160.91,160.91,0,0,1,17.91-1.9l.21,0a13.81,13.81,0,0,0-.21-27.58,146,146,0,0,0-21.57.28c-7.46.66-14.5,2.07-20.09,2.66a122.53,122.53,0,0,1-17.6.86l-9.77-.14c-3.42,0-6.87,0-10.36,0-6.94.1-14.08.59-20.37,1s-12.43.59-18.81.59-12.74,0-18.81-.24-11.77-.86-18.26-1.73-14.15-1.55-21.16-1.76c-3.56-.14-7-.21-10.53-.21l-9.49,0a174.09,174.09,0,0,1-18-1.17c-6.14-.79-13.6-1.73-20.81-2-3.59-.17-7.11-.21-10.63-.24s-6.94.07-10.56.24a134.6,134.6,0,0,0-22.19,2.8c-7.52,1.69-13.19,3.59-18.67,4.63a144.28,144.28,0,0,1-17.57,2h-.24a13.83,13.83,0,0,0,.24,27.61Z"/><path class="cls-9" d="M782.2,662.3l14.43,1.1c4.73.41,9.35.93,14.29,1.52s10.22,1,15.39,1.38,10.29.48,15.39.62,10.53.17,15.95-.1,11-.86,15.95-1.45,9.11-1,13.63-1.24,9.15-.31,13.81-.28,9,.14,13.19.55a122.19,122.19,0,0,1,13,2,153.23,153.23,0,0,0,16.5,2.31,156.57,156.57,0,0,0,16.5.35,136.87,136.87,0,0,0,16.84-1.42,122.23,122.23,0,0,0,16.43-3.93,105.12,105.12,0,0,1,12.5-3.38c4.11-.72,8.49-1.21,13-1.62l.41,0a13.83,13.83,0,0,0-.41-27.58,111.94,111.94,0,0,0-16.67,0,127.67,127.67,0,0,0-16.64,2.55,87.91,87.91,0,0,1-12.74,2,119.91,119.91,0,0,1-12.84.35c-4.56-.17-9-.41-13.25-.86A124.48,124.48,0,0,1,934,632.92a148.9,148.9,0,0,0-16.33-2.73,160.87,160.87,0,0,0-16.57-.83c-5.25,0-10.53.14-15.95.48s-11,1-16,1.76-9.18,1.31-13.67,1.66-9.11.62-13.84.76c-9.73.24-18.92.35-28.68,0-10.08-.17-20.75-.14-30.79.62a13.85,13.85,0,0,0,0,27.61Z"/><path class="cls-9" d="M1019.06,799.82c-5.14-.38-10.32-.59-15.64-.55s-10.74.31-15.71.62-9.32.66-13.88.69-9.22,0-13.95-.1-9.32-.35-13.77-.69-8.73-.93-13.57-1.66-10.49-1.38-15.88-1.76-10.7-.48-15.91-.52c-10,0-20.37.24-30.34.79-9.77.62-19.16.86-29,1.17s-19.09.41-28.86.31c-10,0-20.43.14-30.41.93h-.07a13.85,13.85,0,0,0,.07,27.61l14.5,1.07c4.76.38,9.46.83,14.39,1.31,10,1,20.4,1.52,30.38,1.76s20.37.21,30.38-.07c9.73-.31,19.12-.45,28.93-.38,4.66,0,9.29,0,13.74.31s8.7.72,13.6,1.31,10.53,1.14,15.91,1.38,10.67.24,15.88.1,10.39-.35,15.71-.83,10.74-1.17,15.64-2,9.22-1.52,13.81-2,9.25-.86,14-1.24l.17,0a13.83,13.83,0,0,0-.17-27.58Z"/><path class="cls-9" d="M893,1806.11c-9.08,9-18.61,20.47-18.61,34.28s7.66,27.1,16.71,36.17,22.37,11.11,36.17,11.11,26.16-3,35.21-12.08,16.78-21.4,16.78-35.21-9.94-23.92-19-33-19.19-18.43-33-18.43S902.08,1797,893,1806.11Z"/><path class="cls-9" d="M705.26,1547.85c7.39,6,17.5,7.63,25.13,1.59,14.88-11.7,14.15-12.63,29-24.33s15.84-10.49,30.69-22.23,12.46-14.74,27.3-26.44,17-9,31.86-20.71,12.25-15,27.13-26.68,14.57-12,29.41-23.75,15.29-11.15,30.13-22.85c9.22-7.28,13.77-19.85,6.49-29.06-10.11-12.81-13.19-10.39-23.26-23.16s-6.77-15.43-16.88-28.24-11.32-11.84-21.4-24.61-12.22-11.11-22.33-23.92-6-16-16.12-28.75-10.84-12.18-20.92-25c-6.9-8.73-20.57-9.35-29.82-3.21-4.18,1.35-8.25,2.87-12.56,3a18.64,18.64,0,0,1-8.46-1.66,102.58,102.58,0,0,0-10.53-10.53,70.58,70.58,0,0,1-10.49-11.11c-6.94-8.8-19.43-14.22-33.62-3-7.11,5.59-10.63,8.42-14.19,11.22s-7,5.59-14.12,11.18a27.11,27.11,0,0,1-10.8,5.56,61.67,61.67,0,0,0-21.82,11.39A140.55,140.55,0,0,0,640,1226.11a104.18,104.18,0,0,1-11.8,10.6,88.63,88.63,0,0,0-15.64,15.5,53.12,53.12,0,0,1-10.15,10.08,30.68,30.68,0,0,1-11.08,6,63.88,63.88,0,0,0-21.12,11.46,80.1,80.1,0,0,0-15.74,15.91,48.16,48.16,0,0,1-9.84,9.94c-6.66,5.25-10,7.63-13.67,10.11-3.87,2.66-7.84,5.45-15.33,11.36-7.28,5.73-10.91,8.73-14.39,11.63s-6.77,5.63-13.67,11.08c-11.91,9.39-14.39,26.2-5.52,37.45,5.66,7.21,8.49,10.8,11.32,14.39s5.66,7.21,11.29,14.36a100.19,100.19,0,0,0,15,15.67,66,66,0,0,1,10.46,10.91,69.12,69.12,0,0,1,8.25,12.77,104.6,104.6,0,0,0,11.7,18.05c6,7.52,9.18,11.18,12.29,14.74,3,3.38,5.76,6.56,11.11,13.39a153.45,153.45,0,0,0,13.6,15.22,110.42,110.42,0,0,1,10.8,12.08,53.27,53.27,0,0,1,7.63,12.36,87,87,0,0,0,11.7,19c5.35,6.73,14.22,10.32,23,10.32a27.66,27.66,0,0,0,17.09-5.52c6.56-5.18,9.94-7.42,13.5-9.8,3.11-2.07,6.32-4.21,11.18-7.9a54.94,54.94,0,0,1,5-2.28C693.73,1542.4,699.4,1544.74,705.26,1547.85Zm-31-40.94a38.82,38.82,0,0,1-9.15,9.7c-.48.35-.86.66-1.31,1-10.42,4.87-22,8-31,1.31a97.83,97.83,0,0,0-7.87-11.49,145.37,145.37,0,0,0-13.6-15.22,111.51,111.51,0,0,1-10.8-12.12c-5.94-7.53-9.18-11.18-12.29-14.74-2.93-3.38-5.73-6.56-11.11-13.39a67.84,67.84,0,0,1-8.28-12.74,103.29,103.29,0,0,0-11.7-18.05,100.2,100.2,0,0,0-15-15.67,64.64,64.64,0,0,1-10.42-10.91c-4.63-5.83-7.32-9.29-9.7-12.29-2-4.94-2.66-10.11.55-14.36,1.35-1.79,2.59-3.52,3.73-5.25,2.62-2.17,5.7-4.66,10.63-8.56,6.66-5.25,10-7.59,13.63-10.11,3.87-2.66,7.87-5.42,15.36-11.36a81.19,81.19,0,0,0,15.74-15.88,47.28,47.28,0,0,1,9.84-9.94,30.15,30.15,0,0,1,11.08-6,64.54,64.54,0,0,0,21.12-11.46,88.62,88.62,0,0,0,15.64-15.5,52.11,52.11,0,0,1,10.15-10.08,140.55,140.55,0,0,0,15.08-13.57,102.14,102.14,0,0,1,11.84-10.6,27.14,27.14,0,0,1,10.77-5.59,60.54,60.54,0,0,0,21.82-11.39c.38-.31.72-.55,1.07-.86a22.26,22.26,0,0,0,4.45-2.21c4.21-2.76,7.32-6.35,12.81-6.32,7.11,0,13,6.11,19.36,9.77.31.41.62.79,1,1.21,5.52,7,8.22,10.6,10.91,14.19s5.63,7.46,11.39,14.81c5.94,7.52,9.15,11.18,12.25,14.74,2.62,3,5.14,5.94,9.53,11.39,4.49,7.35,5.52,11.67,14.43,22.92,1.76,2.24,3.24,4.11,4.63,5.76.9,1.21,1.83,2.49,2.93,3.87a107.58,107.58,0,0,0,10.91,12.12c1.93,2.31,4.21,5,7.11,8.73a33.67,33.67,0,0,0,8.56,7.66,37,37,0,0,1,5.35,10,11.29,11.29,0,0,1,.48,1.14,25.35,25.35,0,0,1-.38,6.66c-1.07,5.28-3.9,9.8-7.28,14-1.93,1.55-4.21,3.35-7.11,5.63a133.89,133.89,0,0,0-13.08,11.6c-4.49,3.11-6.8,6-10.11,9.7-1.07.9-2.24,1.86-3.62,3-7.25,5.7-10.87,8.73-14.36,11.63s-6.77,5.63-13.67,11c-7.08,5.59-10.63,8.39-14.15,11.18s-7,5.63-14.15,11.22a161.76,161.76,0,0,0-14.95,13.12,129.91,129.91,0,0,1-12.22,10.7A51.83,51.83,0,0,1,709,1478.5a86.6,86.6,0,0,0-18.78,11.6A72.29,72.29,0,0,0,674.27,1506.91Z"/><path class="cls-9" d="M631.81,1833.93l-.31-1-.21-.52-.38-1-.76-2.07-3.28-8.39c-1.1-2.83-2.35-5.59-3.49-8.18l-3.24-7.52-6.45-15.81c-2.38-5.56-5.25-11.56-7.84-16.26s-4.66-9.46-7-14.5l-.07-.1a13.86,13.86,0,0,0-26,9.29,169.45,169.45,0,0,0,5.52,17.43c2.11,5.76,3.87,10.22,5.45,15.43.83,2.52,1.69,5.25,2.59,8.11,1,6.42,1.21,13.22-2.55,16.09-2.45,1.86-7.08,1.38-9.91,1.52-2.17.1-4.31.24-6.42.48l-.86-.07c-11.32-.93-22.89-2-34.76-2.66s-22.44-1-33.76-2l-2.28-.21-1,0-1.31,0c-.41,0-1.17,0-1.73,0a21.12,21.12,0,0,0-2.55.35c-.45.07-1.35.28-2,.45a21.14,21.14,0,0,0-2.42.9,17.68,17.68,0,0,0-3,1.66,19.49,19.49,0,0,0-3.49,3,19.76,19.76,0,0,0-2.83,4.11,18.41,18.41,0,0,0-1.45,4,14.7,14.7,0,0,0-.38,1.69c-.07.45-.1.93-.14,1.38s-.07.93-.1,1.42l0,.93a15.11,15.11,0,0,0,.14,1.79l.17,1.21a14,14,0,0,0,.38,1.79l.35,1.28.28.93,2.83,8.32c1.73,5.25,3.24,10.25,4.66,15.53s3,11.25,4.8,17.05,3.76,11.56,5.59,16.88c1.59,4.49,3,8.87,4.35,13.25a18.45,18.45,0,0,1-1.86,10.39c-3.94,7.35-13.12,8.56-20.88,8.63-1.62-.14-3.24-.31-4.87-.45L452.15,1937l-34.24-2.69-8.6-.66-1.28-.07c-.72,0-1.48,0-2.24,0a28,28,0,0,0-4.25.69,23.89,23.89,0,0,0-7.18,3.18,24.7,24.7,0,0,0-9.11,11,22.92,22.92,0,0,0-1.79,8,22.49,22.49,0,0,0,.24,4.52,19.24,19.24,0,0,0,.48,2.28l.31,1.1.28.76,1.62,4.31c1.1,2.9,2.35,5.83,3.69,8.77s2.8,5.8,4,8.25,2.35,4.59,3.38,6.9c2.07,4.56,4.28,9.84,5.73,14.12,1.62,4.49,2.17,7.77,3.38,14.5a85.32,85.32,0,0,0,2.49,10,82.57,82.57,0,0,0,3.56,9.22,13.82,13.82,0,0,0,26.16-8.6l-.14-.62c-.59-2.49-1.1-4.94-1.52-7.18a63,63,0,0,1-.72-6.8,93.18,93.18,0,0,0-2.45-19.26c-1-3.66-1.93-6.94-3-10.11-.35-7.9,1.79-13.29,11.53-15.26a67.64,67.64,0,0,1,9.87-1.21l13.88,1.21c5.52.52,10.94,1.07,16.29,1.79l17.09,2.42c6,.79,11.94,1.38,17.78,1.9l1.1.1.55,0,.48,0,1.28,0a21.47,21.47,0,0,0,10.53-2.49,23.35,23.35,0,0,0,11.25-13.36,26,26,0,0,0,.76-13.77c-.1-.59-.31-1.17-.45-1.79l-.45-1.35-.35-1-.66-2c-1.76-5.21-3.38-10.29-4.83-15.43s-2.76-10.7-4.45-16.64-3.56-11.7-5.49-17.29c-1.38-3.9-2.66-7.56-3.87-11.22,0-2.42-.14-4.87-.31-7.49-.41-6.32-.1-9.56,6.32-12,4.94-1.93,10-2.73,15.12-3.62,6.52.45,13.12,1,19.81,1.45l34.24,2.59,8.53.66s1.07.07,1.79.07,1.66,0,2.42-.1a22.33,22.33,0,0,0,4.28-.9,23.49,23.49,0,0,0,6.73-3.24,25.88,25.88,0,0,0,8.39-9.63,23.13,23.13,0,0,0,2-16ZM417.18,1953.67l.1.21,0,.21Z"/></g></svg>