<?xml version="1.0" standalone="no"?><!DOCTYPE svg PUBLIC "-//W3C//DTD SVG 1.1//EN" "http://www.w3.org/Graphics/SVG/1.1/DTD/svg11.dtd"><svg t="1628649400727" class="icon" viewBox="0 0 1024 1024" version="1.1" xmlns="http://www.w3.org/2000/svg" p-id="1566" xmlns:xlink="http://www.w3.org/1999/xlink" width="200" height="200"><defs><style type="text/css"></style></defs><path d="M508.031008 1008.246154c-275.83739 0-500.215146-224.393388-500.215146-500.215146S232.193618 7.815862 508.031008 7.815862c275.806126 0 500.215146 224.393388 500.215146 500.215146s-224.40902 500.215146-500.215146 500.215146z m0-937.747082C266.755358 70.499072 70.467809 266.77099 70.467809 508.031008c0 241.275649 196.28755 437.563199 437.563199 437.563199S945.578575 749.306657 945.578575 508.031008C945.578575 266.77099 749.306657 70.499072 508.031008 70.499072z m0 830.06014a393.513003 393.513003 0 0 1-183.297588-45.331998 20.915246 20.915246 0 0 1 19.539654-36.937762 350.713344 350.713344 0 0 0 142.873951 39.860895v-33.998999a20.883982 20.883982 0 0 1 41.767965 0v33.967735c176.779159-10.441991 318.730838-152.409302 329.17283-329.204093h-33.952103a20.868351 20.868351 0 1 1 0-41.767965h33.936471a350.775871 350.775871 0 0 0-83.489034-207.08907 20.899614 20.899614 0 0 1 31.732398-27.167935A392.559468 392.559468 0 0 1 900.54358 508.031008c0 216.452473-176.075731 392.528204-392.512572 392.528204z m201.023962-170.807841h-0.203213c-1.625699 0-3.235767-0.187581-4.830202-0.578374-37.094079-8.816292-104.560597-56.117887-180.499509-125.17884a97.385636 97.385636 0 0 1-15.491038 1.344328 97.4169 97.4169 0 0 1-97.32311-97.307477c0-5.252259 0.562742-10.395096 1.344329-15.428511-69.076585-75.985807-116.362548-143.467957-125.194472-180.546404a20.899614 20.899614 0 0 1 25.135811-25.182707c37.094079 8.80066 104.591861 56.102255 180.593299 125.210104 5.049047-0.81285 10.176252-1.344328 15.444143-1.344328a97.401268 97.401268 0 0 1 97.307477 97.291846c0 5.267891-0.54711 10.410728-1.344328 15.444142 67.12262 73.797366 113.642629 139.591289 124.334727 177.295006a20.868351 20.868351 0 0 1-19.273914 28.981215zM508.031008 452.507127a55.60204 55.60204 0 0 0-55.539513 55.523881A55.60204 55.60204 0 0 0 508.031008 563.586152a55.60204 55.60204 0 0 0 55.523881-55.555144A55.60204 55.60204 0 0 0 508.031008 452.507127z m77.92414 113.564469a97.838956 97.838956 0 0 1-19.883552 19.883552c36.28123 32.060665 68.732687 57.430951 94.743875 74.860323-17.429371-26.026819-42.799658-58.462645-74.860323-94.743875z m57.071422-381.867368a347.274365 347.274365 0 0 0-114.11158-26.245664v33.983367a20.899614 20.899614 0 0 1-41.767965 0v-33.983367c-176.810422 10.441991-318.762102 152.378039-329.204093 329.188461h33.983367a20.883982 20.883982 0 0 1 0 41.767965H157.974196a351.104137 351.104137 0 0 0 80.941063 204.103411 20.868351 20.868351 0 1 1-32.029401 26.792774A392.85647 392.85647 0 0 1 115.518435 508.031008C115.518435 291.594167 291.578535 115.518435 508.031008 115.518435c52.381905 0 103.185006 10.144988 151.080606 30.137963a20.899614 20.899614 0 0 1-16.085044 38.54783z" p-id="1567"></path></svg>